<svg width="48" height="57" viewBox="0 0 48 57" fill="none" xmlns="http://www.w3.org/2000/svg">
<path d="M36 12.5C36 19.4036 30.4036 25 23.5 25C16.5964 25 11 19.4036 11 12.5C11 5.59644 16.5964 0 23.5 0C30.4036 0 36 5.59644 36 12.5ZM16.4678 12.5C16.4678 16.3838 19.6162 19.5322 23.5 19.5322C27.3838 19.5322 30.5322 16.3838 30.5322 12.5C30.5322 8.61625 27.3838 5.46785 23.5 5.46785C19.6162 5.46785 16.4678 8.61625 16.4678 12.5Z" fill="black"/>
<path d="M21 22H26V54.4638L23.5 57L21 54.4638V22Z" fill="black"/>
<path d="M44 31C44 33.6264 43.4827 36.2272 42.4776 38.6537C41.4725 41.0802 39.9993 43.285 38.1421 45.1421C36.285 46.9993 34.0802 48.4725 31.6537 49.4776C29.2272 50.4827 26.6264 51 24 51C21.3736 51 18.7728 50.4827 16.3463 49.4776C13.9198 48.4725 11.715 46.9993 9.85786 45.1421C8.00069 43.285 6.5275 41.0802 5.52241 38.6537C4.51731 36.2272 4 33.6264 4 31L9.20621 31C9.20621 32.9427 9.58887 34.8665 10.3323 36.6613C11.0758 38.4562 12.1655 40.0871 13.5392 41.4608C14.9129 42.8345 16.5438 43.9242 18.3387 44.6677C20.1335 45.4111 22.0573 45.7938 24 45.7938C25.9427 45.7938 27.8665 45.4111 29.6613 44.6677C31.4562 43.9242 33.0871 42.8345 34.4608 41.4608C35.8345 40.0871 36.9242 38.4562 37.6677 36.6613C38.4111 34.8665 38.7938 32.9427 38.7938 31L44 31Z" fill="black"/>
<path d="M5.95999 26.8374C5.95999 26.8374 14.5381 31.6329 12.891 35.7093C11.2438 39.7858 4.44888 40.7405 1.74216 37.2758C-0.964562 33.8111 5.95999 26.8374 5.95999 26.8374Z" fill="black"/>
<path d="M41.7139 26.8374C41.7139 26.8374 33.1357 31.6329 34.7829 35.7093C36.4301 39.7858 43.225 40.7405 45.9317 37.2758C48.6385 33.8111 41.7139 26.8374 41.7139 26.8374Z" fill="black"/>
</svg>
