<svg width="1563" height="2360" viewBox="0 0 1563 2360" fill="none" xmlns="http://www.w3.org/2000/svg">
<g id="BOAT" clip-path="url(#clip0_120_3701)">
<ellipse id="SUN" cx="786" cy="2275" rx="1723" ry="1108" fill="#FFBBAD"/>
<g id="BOAT_CONTAINER">
<g id="BOAT_2">
<g id="R">
<g id="WHITE BG">
<path d="M786 1474.5H949.5H1146.92L1150.83 1487.75L1154.75 1501H1305L1301.07 1512L1266.4 1609L1263 1618.5H1255L1196.31 1666L1235.98 1765L1304.5 1936C1304.5 1936 1232 1836 1101 1765C1026.32 1721.65 943.783 1688.13 881.937 1666C867.144 1660.71 853.535 1656.06 841.5 1652.09C807.449 1640.86 786 1635 786 1635V1618.5V1590V1580V1507.5V1491V1474.5Z" fill="#FCFCFC"/>
<path d="M1134.5 1432.5H786V1441.5H1137.16L1134.5 1432.5Z" fill="#FCFCFC"/>
<path d="M786 1389H1082C1082 1389 1097.79 1390.5 1109.64 1396H786V1389Z" fill="#FCFCFC"/>
<path d="M786 1373.5V1384H808L804.25 1346.5L802.85 1332.5L799.5 1299H786V1373.5Z" fill="#FCFCFC"/>
<path d="M806 1332.5H844.5C844.5 1332.5 849.5 1333.5 849.5 1339.5C849.5 1345.5 844.5 1346.5 844.5 1346.5H806V1332.5Z" fill="#FCFCFC"/>
</g>
<g id="Group 26">
<g id="WINDOW_BG">
<path d="M963 1512L996 1527V1594.94L963 1577.24V1512Z" fill="url(#paint0_linear_120_3701)"/>
<path d="M786 1570V1507.5H833.5V1570H786Z" fill="url(#paint1_linear_120_3701)"/>
<path d="M888.5 1507.5H843V1570H888.5V1507.5Z" fill="url(#paint2_linear_120_3701)"/>
<path d="M898 1506H940.5V1570H898V1506Z" fill="url(#paint3_linear_120_3701)"/>
<path d="M1033 1531V1600.5H1013V1531H1033Z" fill="url(#paint4_linear_120_3701)"/>
<path d="M1087.5 1531V1600.5H1042.5V1531H1087.5Z" fill="url(#paint5_linear_120_3701)"/>
<path d="M1143 1531H1097.5V1600.5H1143V1531Z" fill="url(#paint6_linear_120_3701)"/>
<path d="M1199 1531H1153V1600.5H1199V1531Z" fill="url(#paint7_linear_120_3701)"/>
<path d="M1254 1531H1208.5V1600.5H1254V1531Z" fill="url(#paint8_linear_120_3701)"/>
<path d="M1263 1599.5V1531H1285.26L1263 1599.5Z" fill="url(#paint9_linear_120_3701)"/>
<path d="M786 1474.5V1462.5V1458V1444H817.5H822H847.5H852H877.5H882H907.5H912H937.5H942H967.5H972H997.5H1002H1027.5H1032H1057.5H1062H1086.5H1091H1116.5H1121H1137.9L1142.04 1458L1143.37 1462.5L1146.92 1474.5H1126.5H1122H1096.5H1092H1067.5H1063H1037.5H1033H1007.5H1003H977.5H973H947.5H943H917.5H913H887.5H883H857.5H853H827.5H823H786Z" fill="url(#paint10_linear_120_3701)"/>
</g>
<g id="WINDOW_STROKE">
<path d="M1123.52 1458H1142.04L1143.37 1462.5H1124.34L1126.5 1474.5H1122L1119.84 1462.5H1094.34L1096.5 1474.5H1092L1089.84 1462.5H1065.34L1067.5 1474.5H1063L1060.84 1462.5H1035.34L1037.5 1474.5H1033L1030.84 1462.5H1005.34L1007.5 1474.5H1003L1000.84 1462.5H975.336L977.5 1474.5H973L970.836 1462.5H945.336L947.5 1474.5H943L940.836 1462.5H915.336L917.5 1474.5H913L910.836 1462.5H885.336L887.5 1474.5H883L880.836 1462.5H855.336L857.5 1474.5H853L850.836 1462.5H825.336L827.5 1474.5H823L820.836 1462.5H786V1458H820.025L817.5 1444H822L824.525 1458H850.025L847.5 1444H852L854.525 1458H880.025L877.5 1444H882L884.525 1458H910.025L907.5 1444H912L914.525 1458H940.025L937.5 1444H942L944.525 1458H970.025L967.5 1444H972L974.525 1458H1000.02L997.5 1444H1002L1004.52 1458H1030.02L1027.5 1444H1032L1034.52 1458H1060.02L1057.5 1444H1062L1064.52 1458H1089.02L1086.5 1444H1091L1093.52 1458H1119.02L1116.5 1444H1121L1123.52 1458Z" fill="black"/>
<path d="M958 1499V1574.5L963 1577.24V1512L996 1527V1518.67L958 1499Z" fill="black"/>
<path d="M833.5 1507.5V1570H839.5V1495H786V1507.5H833.5Z" fill="black"/>
<path d="M843 1507.5V1495H894V1570H888.5V1507.5H843Z" fill="black"/>
<path d="M940.5 1495H898V1506H940.5V1495Z" fill="black"/>
<path d="M1039 1600.5V1519.5H1013V1531H1033V1600.5H1039Z" fill="black"/>
<path d="M1094.5 1519.5H1042.5V1531H1087.5V1600.5H1094.5V1519.5Z" fill="black"/>
<path d="M1097.5 1531V1519.5H1150V1600.5H1143V1531H1097.5Z" fill="black"/>
<path d="M1199 1531H1153V1519.5H1205V1600.5H1199V1531Z" fill="black"/>
<path d="M1208.5 1531V1519.5H1260.5V1600.5H1254V1531H1208.5Z" fill="black"/>
<path d="M1263 1519.5H1289L1285.26 1531H1263V1519.5Z" fill="black"/>
</g>
<path id="WINDWO_BG_UP" d="M790 1398H794.5L1110 1396.5C1111.33 1397.18 1117.6 1400.68 1120 1403.27L1124.5 1409.5L1126 1412L1134 1431H1124.5H1120H1094.5H1090H1064.5H1060H1034.5H1030H1004.5H1000H974.5H970H944.5H940H914.5H910H884.5H880H854.5H850H824.5H820H794.5H790H786V1412V1398H790Z" fill="url(#paint11_linear_120_3701)"/>
<path id="WINDWO_STROKE_UP" d="M790 1398H794.5V1412H820V1398H824.5V1412H850V1398H854.5V1412H880V1398H884.5V1412H910V1398H914.5V1412H940V1398H944.5V1412H970V1398H974.5V1412H1000V1398H1004.5V1412H1030V1398H1034.5V1412H1060V1398H1064.5V1412H1090V1398H1094.5V1412H1120V1403.27L1124.5 1409.5V1412H1126L1129 1416H1124.5V1431H1120V1416H1094.5V1431H1090V1416H1064.5V1431H1060V1416H1034.5V1431H1030V1416H1004.5V1431H1000V1416H974.5V1431H970V1416H944.5V1431H940V1416H914.5V1431H910V1416H884.5V1431H880V1416H854.5V1431H850V1416H824.5V1431H820V1416H794.5V1431H790V1416H786V1412H790V1398Z" fill="black"/>
</g>
<path id="SCAFO" d="M1129 2341C1020.74 2462.09 786 2469.5 786 2469.5V2169.5V1810.5C786 1810.5 835.5 1810.5 835.5 1759C835.5 1707.5 786 1707.5 786 1707.5V1635C786 1635 807.449 1640.86 841.5 1652.09C853.535 1656.06 867.144 1660.71 881.937 1666C892.562 1669.8 903.798 1673.94 915.5 1678.41C971.911 1699.94 1039.15 1729.09 1101 1765C1173.05 1804.05 1227.4 1851.87 1261.73 1887C1280.7 1906.42 1293.55 1921.96 1299.9 1930C1302.95 1933.87 1304.5 1936 1304.5 1936C1277 2153 1226 2232.5 1129 2341Z" fill="url(#paint12_radial_120_3701)"/>
<path id="SCAFO_WHITE" d="M1129 2341C1020.74 2462.09 786 2469.5 786 2469.5V2335.5V2188V2169.5V1810.5C786 1810.5 835.5 1810.5 835.5 1759C835.5 1707.5 786 1707.5 786 1707.5V1635C786 1635 807.449 1640.86 841.5 1652.09C853.535 1656.06 867.144 1660.71 881.937 1666C892.562 1669.8 903.798 1673.94 915.5 1678.41L786 2169.5V2188C786 2188 895.623 2118.56 996 2041C1029 2015.5 1103.96 1966.46 1134 1969.5C1173.5 1973.5 1131.76 2021.88 1161.5 2041C1205.36 2069.2 1279.5 1954.82 1279.5 1978.5C1279.5 2007.03 1270.5 2051 1270.5 2051H1285.01C1292.56 2017.28 1299 1979.39 1304.5 1936C1304.5 1936 1302.95 1933.87 1299.9 1930C1299.9 1930 1282.3 1961.5 1263.5 1961.5C1250.5 1961.5 1261.73 1887 1261.73 1887C1280.7 1906.42 1293.55 1921.96 1299.9 1930C1302.95 1933.87 1304.5 1936 1304.5 1936C1299 1979.39 1292.56 2017.28 1285.01 2051C1281.41 2067.06 1277.55 2082.18 1273.43 2096.5C1254.4 2162.5 1229.57 2211.47 1197.02 2257.5C1194.5 2238 1209.52 2222 1197.02 2232C1188.97 2238.44 1187.67 2234.5 1191.52 2229.5C1194.53 2225.89 1197.33 2222.36 1199.88 2219C1200.75 2216.83 1201.6 2213.1 1198 2215.5C1194.4 2217.9 1161.12 2258.17 1144.93 2278C1144.93 2278 1142.23 2284.87 1141.5 2289.5C1138.08 2311.21 1191.5 2234.5 1183 2251.5C1175.13 2267.24 1169 2294.34 1169 2294.34C1156.62 2309.62 1143.31 2324.99 1129 2341Z" fill="#FDFDFD"/>
<path id="SCAFO_BLUE" d="M1273.43 2096.5C1273.43 2096.5 1270.74 2101 1266.58 2106.1C1251.71 2126.74 1216.53 2174.18 1201 2183.5C1161 2207.5 1153 2177.5 1153 2177.5C1153 2177.5 1129 2227 1129 2236C1129 2245 1206.5 2189.5 1211.5 2186.5C1216.5 2183.5 1214.5 2194.5 1201 2206C1187.5 2217.5 1118 2303.5 1116 2304.91C1114 2306.31 1113.4 2305.8 1113.5 2304.5C1115 2284 1118.61 2286.83 1143.5 2248.5C1168.39 2210.17 1065.54 2305.64 1029 2320C1015 2325.5 1036.06 2278.33 1042.5 2251C1049.89 2219.65 819.075 2407.18 793 2335.5C793 2335.5 800.675 2298.69 814.5 2280C828.74 2260.75 840.215 2249.85 863 2242.5C883.627 2235.84 898.676 2251.26 918.5 2242.5C933.925 2235.68 950.5 2213.5 950.5 2213.5C950.5 2213.5 970.886 2205.85 973.5 2194.5C974.464 2190.31 972.18 2187.59 973.5 2183.5C976.842 2173.15 990.679 2179.87 999.5 2173.5C1011.36 2164.94 1007.07 2148.28 1020.5 2142.5C1030.36 2138.25 1042.61 2151.79 1048 2142.5C1078.5 2090 1139.5 2013 1137.5 2038.5C1137.5 2038.5 1122.08 2074.68 1129 2096.5C1144.81 2146.37 1244.5 2024 1257.5 2049C1270.15 2073.33 1226.5 2115 1242 2120C1250.76 2122.83 1260.33 2113.78 1266.58 2106.1C1270.84 2100.21 1273.43 2096.5 1273.43 2096.5Z" fill="#5DB7DE"/>
<g id="WINDWO SCAFO">
<path id="Vector 9" d="M915 1833.5V1807L974.5 1840.5V1868L915 1833.5Z" fill="#07020D"/>
<path id="Vector 10" d="M1015 1888.5V1862L1074.5 1895.5V1923L1015 1888.5Z" fill="#07020D"/>
<path id="Vector 11" d="M1164 1976.5V1950L1200 1970V1995.5L1164 1976.5Z" fill="#07020D"/>
<path id="Vector 12" d="M1219 2006.5V1980L1255 2000V2025.5L1219 2006.5Z" fill="#07020D"/>
</g>
<g id="LOWER WINDOWS">
<g id="Group 10">
<path id="Vector 3" d="M847 1653H857L853.2 1634H843.2L847 1653Z" fill="#0881D1"/>
<path id="Vector 6" d="M852 1628H842L843.2 1634H853.2L852 1628Z" fill="#07020D"/>
<path id="Vector 4" d="M856 1628H866L867.2 1634L871 1653H861L857.2 1634L856 1628Z" fill="#0881D1"/>
<path id="Vector 7" d="M866 1628H856L857.2 1634H867.2L866 1628Z" fill="#07020D"/>
<path id="Vector 5" d="M870 1628H880L881.2 1634L885 1653H875L871.2 1634L870 1628Z" fill="#0881D1"/>
<path id="Vector 8" d="M880 1628H870L871.2 1634H881.2L880 1628Z" fill="#07020D"/>
</g>
<g id="Group 27">
<path id="Vector 3_2" d="M930 1653H940L936.2 1634H926.2L930 1653Z" fill="#0881D1"/>
<path id="Vector 6_2" d="M935 1628H925L926.2 1634H936.2L935 1628Z" fill="#07020D"/>
<path id="Vector 4_2" d="M939 1628H949L950.2 1634L954 1653H944L940.2 1634L939 1628Z" fill="#0881D1"/>
<path id="Vector 7_2" d="M949 1628H939L940.2 1634H950.2L949 1628Z" fill="#07020D"/>
<path id="Vector 5_2" d="M953 1628H963L964.2 1634L968 1653H958L954.2 1634L953 1628Z" fill="#0881D1"/>
<path id="Vector 8_2" d="M963 1628H953L954.2 1634H964.2L963 1628Z" fill="#07020D"/>
</g>
<g id="Group 30">
<path id="Vector 3_3" d="M942 1706H952L948.2 1687H938.2L942 1706Z" fill="#0881D1"/>
<path id="Vector 6_3" d="M947 1681H937L938.2 1687H948.2L947 1681Z" fill="#07020D"/>
<path id="Vector 4_3" d="M951 1681H961L962.2 1687L966 1706H956L952.2 1687L951 1681Z" fill="#0881D1"/>
<path id="Vector 7_3" d="M961 1681H951L952.2 1687H962.2L961 1681Z" fill="#07020D"/>
<path id="Vector 5_3" d="M965 1681H975L976.2 1687L980 1706H970L966.2 1687L965 1681Z" fill="#0881D1"/>
<path id="Vector 8_3" d="M975 1681H965L966.2 1687H976.2L975 1681Z" fill="#07020D"/>
</g>
<g id="Group 28">
<path id="Vector 3_4" d="M1020 1653H1030L1026.2 1634H1016.2L1020 1653Z" fill="#0881D1"/>
<path id="Vector 6_4" d="M1025 1628H1015L1016.2 1634H1026.2L1025 1628Z" fill="#07020D"/>
<path id="Vector 4_4" d="M1029 1628H1039L1040.2 1634L1044 1653H1034L1030.2 1634L1029 1628Z" fill="#0881D1"/>
<path id="Vector 7_4" d="M1039 1628H1029L1030.2 1634H1040.2L1039 1628Z" fill="#07020D"/>
<path id="Vector 5_4" d="M1043 1628H1053L1054.2 1634L1058 1653H1048L1044.2 1634L1043 1628Z" fill="#0881D1"/>
<path id="Vector 8_4" d="M1053 1628H1043L1044.2 1634H1054.2L1053 1628Z" fill="#07020D"/>
</g>
<g id="Group 31">
<path id="Vector 3_5" d="M1032 1706H1042L1038.2 1687H1028.2L1032 1706Z" fill="#0881D1"/>
<path id="Vector 6_5" d="M1037 1681H1027L1028.2 1687H1038.2L1037 1681Z" fill="#07020D"/>
<path id="Vector 4_5" d="M1041 1681H1051L1052.2 1687L1056 1706H1046L1042.2 1687L1041 1681Z" fill="#0881D1"/>
<path id="Vector 7_5" d="M1051 1681H1041L1042.2 1687H1052.2L1051 1681Z" fill="#07020D"/>
<path id="Vector 5_5" d="M1055 1681H1065L1066.2 1687L1070 1706H1060L1056.2 1687L1055 1681Z" fill="#0881D1"/>
<path id="Vector 8_5" d="M1065 1681H1055L1056.2 1687H1066.2L1065 1681Z" fill="#07020D"/>
</g>
<g id="Group 34">
<path id="Vector 3_6" d="M1042 1748H1052L1048.2 1729H1038.2L1042 1748Z" fill="#0881D1"/>
<path id="Vector 6_6" d="M1047 1723H1037L1038.2 1729H1048.2L1047 1723Z" fill="#07020D"/>
<path id="Vector 4_6" d="M1051 1723H1061L1062.2 1729L1066 1748H1056L1052.2 1729L1051 1723Z" fill="#0881D1"/>
<path id="Vector 7_6" d="M1061 1723H1051L1052.2 1729H1062.2L1061 1723Z" fill="#07020D"/>
<path id="Vector 5_6" d="M1065 1723H1075L1076.2 1729L1080 1748H1070L1066.2 1729L1065 1723Z" fill="#0881D1"/>
<path id="Vector 8_6" d="M1075 1723H1065L1066.2 1729H1076.2L1075 1723Z" fill="#07020D"/>
</g>
<g id="Group 29">
<path id="Vector 3_7" d="M1107 1653H1117L1113.2 1634H1103.2L1107 1653Z" fill="#0881D1"/>
<path id="Vector 6_7" d="M1112 1628H1102L1103.2 1634H1113.2L1112 1628Z" fill="#07020D"/>
<path id="Vector 4_7" d="M1116 1628H1126L1127.2 1634L1131 1653H1121L1117.2 1634L1116 1628Z" fill="#0881D1"/>
<path id="Vector 7_7" d="M1126 1628H1116L1117.2 1634H1127.2L1126 1628Z" fill="#07020D"/>
<path id="Vector 5_7" d="M1130 1628H1140L1141.2 1634L1145 1653H1135L1131.2 1634L1130 1628Z" fill="#0881D1"/>
<path id="Vector 8_7" d="M1140 1628H1130L1131.2 1634H1141.2L1140 1628Z" fill="#07020D"/>
</g>
<g id="Group 32">
<path id="Vector 3_8" d="M1119 1706H1129L1125.2 1687H1115.2L1119 1706Z" fill="#0881D1"/>
<path id="Vector 6_8" d="M1124 1681H1114L1115.2 1687H1125.2L1124 1681Z" fill="#07020D"/>
<path id="Vector 4_8" d="M1128 1681H1138L1139.2 1687L1143 1706H1133L1129.2 1687L1128 1681Z" fill="#0881D1"/>
<path id="Vector 7_8" d="M1138 1681H1128L1129.2 1687H1139.2L1138 1681Z" fill="#07020D"/>
<path id="Vector 5_8" d="M1142 1681H1152L1153.2 1687L1157 1706H1147L1143.2 1687L1142 1681Z" fill="#0881D1"/>
<path id="Vector 8_8" d="M1152 1681H1142L1143.2 1687H1153.2L1152 1681Z" fill="#07020D"/>
</g>
<g id="Group 35">
<path id="Vector 3_9" d="M1129 1748H1139L1135.2 1729H1125.2L1129 1748Z" fill="#0881D1"/>
<path id="Vector 6_9" d="M1134 1723H1124L1125.2 1729H1135.2L1134 1723Z" fill="#07020D"/>
<path id="Vector 4_9" d="M1138 1723H1148L1149.2 1729L1153 1748H1143L1139.2 1729L1138 1723Z" fill="#0881D1"/>
<path id="Vector 7_9" d="M1148 1723H1138L1139.2 1729H1149.2L1148 1723Z" fill="#07020D"/>
<path id="Vector 5_9" d="M1152 1723H1162L1163.2 1729L1167 1748H1157L1153.2 1729L1152 1723Z" fill="#0881D1"/>
<path id="Vector 8_9" d="M1162 1723H1152L1153.2 1729H1163.2L1162 1723Z" fill="#07020D"/>
</g>
<g id="Group 38">
<path id="Vector 3_10" d="M1139 1807H1149L1145.2 1788H1135.2L1139 1807Z" fill="#0881D1"/>
<path id="Vector 6_10" d="M1144 1782H1134L1135.2 1788H1145.2L1144 1782Z" fill="#07020D"/>
<path id="Vector 4_10" d="M1148 1782H1158L1159.2 1788L1163 1807H1153L1149.2 1788L1148 1782Z" fill="#0881D1"/>
<path id="Vector 7_10" d="M1158 1782H1148L1149.2 1788H1159.2L1158 1782Z" fill="#07020D"/>
<path id="Vector 5_10" d="M1162 1782H1172L1173.2 1788L1177 1807H1167L1163.2 1788L1162 1782Z" fill="#0881D1"/>
<path id="Vector 8_10" d="M1172 1782H1162L1163.2 1788H1173.2L1172 1782Z" fill="#07020D"/>
</g>
</g>
<path id="SHADOW_LOW" d="M1004.5 1617.5H786V1589H949.5L1004.5 1617.5Z" fill="black" fill-opacity="0.08"/>
<g id="SHADOWS_2">
<path d="M1004.5 1501H1154.75L1150.83 1487.75H977L1004.5 1501Z" fill="black" fill-opacity="0.09"/>
<path d="M1254.5 1618.5H1178L1196.31 1666L1254.5 1618.5Z" fill="black" fill-opacity="0.09"/>
</g>
<g id="SHADOW">
<mask id="mask0_120_3701" style="mask-type:alpha" maskUnits="userSpaceOnUse" x="784" y="1299" width="523" height="1173">
<g id="L">
<g id="WHITE BG_2">
<path d="M786 1474.5H949.5H1146.92L1150.83 1487.75L1154.75 1501H1305L1301.07 1512L1266.4 1609L1263 1618.5H1255L1196.31 1666L1235.98 1765L1304.5 1936C1304.5 1936 1232 1836 1101 1765C1026.32 1721.65 943.783 1688.13 881.937 1666C867.144 1660.71 853.535 1656.06 841.5 1652.09C807.449 1640.86 786 1635 786 1635V1618.5V1590V1580V1507.5V1491V1474.5Z" fill="black" fill-opacity="0.15"/>
<path d="M1134.5 1432.5H786V1441.5H1137.16L1134.5 1432.5Z" fill="black" fill-opacity="0.15"/>
<path d="M786 1389H1082C1082 1389 1097.79 1390.5 1109.64 1396H786V1389Z" fill="black" fill-opacity="0.15"/>
<path d="M786 1373.5V1384H808L804.25 1346.5L802.85 1332.5L799.5 1299H786V1373.5Z" fill="black" fill-opacity="0.15"/>
<path d="M806 1332.5H844.5C844.5 1332.5 849.5 1333.5 849.5 1339.5C849.5 1345.5 844.5 1346.5 844.5 1346.5H806V1332.5Z" fill="black" fill-opacity="0.15"/>
</g>
<g id="Group 26_2">
<g id="WINDOW_BG_2">
<path d="M963 1512L996 1527V1594.94L963 1577.24V1512Z" fill="black" fill-opacity="0.15"/>
<path d="M786 1570V1507.5H833.5V1570H786Z" fill="black" fill-opacity="0.15"/>
<path d="M888.5 1507.5H843V1570H888.5V1507.5Z" fill="black" fill-opacity="0.15"/>
<path d="M898 1506H940.5V1570H898V1506Z" fill="black" fill-opacity="0.15"/>
<path d="M1033 1531V1600.5H1013V1531H1033Z" fill="black" fill-opacity="0.15"/>
<path d="M1087.5 1531V1600.5H1042.5V1531H1087.5Z" fill="black" fill-opacity="0.15"/>
<path d="M1143 1531H1097.5V1600.5H1143V1531Z" fill="black" fill-opacity="0.15"/>
<path d="M1199 1531H1153V1600.5H1199V1531Z" fill="black" fill-opacity="0.15"/>
<path d="M1254 1531H1208.5V1600.5H1254V1531Z" fill="black" fill-opacity="0.15"/>
<path d="M1263 1599.5V1531H1285.26L1263 1599.5Z" fill="black" fill-opacity="0.15"/>
<path d="M786 1474.5V1462.5V1458V1444H817.5H822H847.5H852H877.5H882H907.5H912H937.5H942H967.5H972H997.5H1002H1027.5H1032H1057.5H1062H1086.5H1091H1116.5H1121H1137.9L1142.04 1458L1143.37 1462.5L1146.92 1474.5H1126.5H1122H1096.5H1092H1067.5H1063H1037.5H1033H1007.5H1003H977.5H973H947.5H943H917.5H913H887.5H883H857.5H853H827.5H823H786Z" fill="black" fill-opacity="0.15"/>
</g>
<g id="WINDOW_STROKE_2">
<path d="M1123.52 1458H1142.04L1143.37 1462.5H1124.34L1126.5 1474.5H1122L1119.84 1462.5H1094.34L1096.5 1474.5H1092L1089.84 1462.5H1065.34L1067.5 1474.5H1063L1060.84 1462.5H1035.34L1037.5 1474.5H1033L1030.84 1462.5H1005.34L1007.5 1474.5H1003L1000.84 1462.5H975.336L977.5 1474.5H973L970.836 1462.5H945.336L947.5 1474.5H943L940.836 1462.5H915.336L917.5 1474.5H913L910.836 1462.5H885.336L887.5 1474.5H883L880.836 1462.5H855.336L857.5 1474.5H853L850.836 1462.5H825.336L827.5 1474.5H823L820.836 1462.5H786V1458H820.025L817.5 1444H822L824.525 1458H850.025L847.5 1444H852L854.525 1458H880.025L877.5 1444H882L884.525 1458H910.025L907.5 1444H912L914.525 1458H940.025L937.5 1444H942L944.525 1458H970.025L967.5 1444H972L974.525 1458H1000.02L997.5 1444H1002L1004.52 1458H1030.02L1027.5 1444H1032L1034.52 1458H1060.02L1057.5 1444H1062L1064.52 1458H1089.02L1086.5 1444H1091L1093.52 1458H1119.02L1116.5 1444H1121L1123.52 1458Z" fill="black" fill-opacity="0.15"/>
<path d="M958 1499V1574.5L963 1577.24V1512L996 1527V1518.67L958 1499Z" fill="black" fill-opacity="0.15"/>
<path d="M833.5 1507.5V1570H839.5V1495H786V1507.5H833.5Z" fill="black" fill-opacity="0.15"/>
<path d="M843 1507.5V1495H894V1570H888.5V1507.5H843Z" fill="black" fill-opacity="0.15"/>
<path d="M940.5 1495H898V1506H940.5V1495Z" fill="black" fill-opacity="0.15"/>
<path d="M1039 1600.5V1519.5H1013V1531H1033V1600.5H1039Z" fill="black" fill-opacity="0.15"/>
<path d="M1094.5 1519.5H1042.5V1531H1087.5V1600.5H1094.5V1519.5Z" fill="black" fill-opacity="0.15"/>
<path d="M1097.5 1531V1519.5H1150V1600.5H1143V1531H1097.5Z" fill="black" fill-opacity="0.15"/>
<path d="M1199 1531H1153V1519.5H1205V1600.5H1199V1531Z" fill="black" fill-opacity="0.15"/>
<path d="M1208.5 1531V1519.5H1260.5V1600.5H1254V1531H1208.5Z" fill="black" fill-opacity="0.15"/>
<path d="M1263 1519.5H1289L1285.26 1531H1263V1519.5Z" fill="black" fill-opacity="0.15"/>
</g>
<path id="WINDWO_BG_UP_2" d="M790 1398H794.5H820H824.5H850H854.5H880H884.5H910H914.5H940H944.5H970H974.5H1000H1004.5H1030H1034.5H1060H1064.5H1090H1094.5H1113C1114.33 1398.68 1117.6 1400.68 1120 1403.27V1412H1124.5V1431H1120H1094.5H1090H1064.5H1060H1034.5H1030H1004.5H1000H974.5H970H944.5H940H914.5H910H884.5H880H854.5H850H824.5H820H794.5H790H786V1412V1398H790Z" fill="black" fill-opacity="0.15"/>
<path id="WINDWO_STROKE_UP_2" d="M790 1398H794.5V1412H820V1398H824.5V1412H850V1398H854.5V1412H880V1398H884.5V1412H910V1398H914.5V1412H940V1398H944.5V1412H970V1398H974.5V1412H1000V1398H1004.5V1412H1030V1398H1034.5V1412H1060V1398H1064.5V1412H1090V1398H1094.5V1412H1120V1403.27L1124.5 1409.5V1412H1126L1129 1416H1124.5V1431H1120V1416H1094.5V1431H1090V1416H1064.5V1431H1060V1416H1034.5V1431H1030V1416H1004.5V1431H1000V1416H974.5V1431H970V1416H944.5V1431H940V1416H914.5V1431H910V1416H884.5V1431H880V1416H854.5V1431H850V1416H824.5V1431H820V1416H794.5V1431H790V1416H786V1412H790V1398Z" fill="black" fill-opacity="0.15"/>
</g>
<path id="SCAFO_2" d="M1129 2341C1020.74 2462.09 786 2469.5 786 2469.5V2169.5V1810.5C786 1810.5 835.5 1810.5 835.5 1759C835.5 1707.5 786 1707.5 786 1707.5V1635C786 1635 807.449 1640.86 841.5 1652.09C853.535 1656.06 867.144 1660.71 881.937 1666C892.562 1669.8 903.798 1673.94 915.5 1678.41C971.911 1699.94 1039.15 1729.09 1101 1765C1173.05 1804.05 1227.4 1851.87 1261.73 1887C1280.7 1906.42 1293.55 1921.96 1299.9 1930C1302.95 1933.87 1304.5 1936 1304.5 1936C1277 2153 1226 2232.5 1129 2341Z" fill="black" fill-opacity="0.15"/>
<path id="SCAFO_WHITE_2" d="M1129 2341C1020.74 2462.09 786 2469.5 786 2469.5V2335.5V2188V2169.5V1810.5C786 1810.5 835.5 1810.5 835.5 1759C835.5 1707.5 786 1707.5 786 1707.5V1635C786 1635 807.449 1640.86 841.5 1652.09C853.535 1656.06 867.144 1660.71 881.937 1666C892.562 1669.8 903.798 1673.94 915.5 1678.41L786 2169.5V2188C786 2188 895.623 2118.56 996 2041C1029 2015.5 1103.96 1966.46 1134 1969.5C1173.5 1973.5 1131.76 2021.88 1161.5 2041C1205.36 2069.2 1279.5 1954.82 1279.5 1978.5C1279.5 2007.03 1270.5 2051 1270.5 2051H1285.01C1292.56 2017.28 1299 1979.39 1304.5 1936C1304.5 1936 1302.95 1933.87 1299.9 1930C1299.9 1930 1282.3 1961.5 1263.5 1961.5C1250.5 1961.5 1261.73 1887 1261.73 1887C1280.7 1906.42 1293.55 1921.96 1299.9 1930C1302.95 1933.87 1304.5 1936 1304.5 1936C1299 1979.39 1292.56 2017.28 1285.01 2051C1281.41 2067.06 1277.55 2082.18 1273.43 2096.5C1254.4 2162.5 1229.57 2211.47 1197.02 2257.5C1194.5 2238 1209.52 2222 1197.02 2232C1188.97 2238.44 1187.67 2234.5 1191.52 2229.5C1194.53 2225.89 1197.33 2222.36 1199.88 2219C1200.75 2216.83 1201.6 2213.1 1198 2215.5C1194.4 2217.9 1161.12 2258.17 1144.93 2278C1144.93 2278 1142.23 2284.87 1141.5 2289.5C1138.08 2311.21 1191.5 2234.5 1183 2251.5C1175.13 2267.24 1169 2294.34 1169 2294.34C1156.62 2309.62 1143.31 2324.99 1129 2341Z" fill="black" fill-opacity="0.15"/>
<path id="SCAFO_BLUE_2" d="M1273.43 2096.5C1273.43 2096.5 1270.74 2101 1266.58 2106.1C1251.71 2126.74 1216.53 2174.18 1201 2183.5C1161 2207.5 1153 2177.5 1153 2177.5C1153 2177.5 1129 2227 1129 2236C1129 2245 1206.5 2189.5 1211.5 2186.5C1216.5 2183.5 1214.5 2194.5 1201 2206C1187.5 2217.5 1118 2303.5 1116 2304.91C1114 2306.31 1113.4 2305.8 1113.5 2304.5C1115 2284 1118.61 2286.83 1143.5 2248.5C1168.39 2210.17 1065.54 2305.64 1029 2320C1015 2325.5 1036.06 2278.33 1042.5 2251C1049.89 2219.65 819.075 2407.18 793 2335.5C793 2335.5 800.675 2298.69 814.5 2280C828.74 2260.75 840.215 2249.85 863 2242.5C883.627 2235.84 898.676 2251.26 918.5 2242.5C933.925 2235.68 950.5 2213.5 950.5 2213.5C950.5 2213.5 970.886 2205.85 973.5 2194.5C974.464 2190.31 972.18 2187.59 973.5 2183.5C976.842 2173.15 990.679 2179.87 999.5 2173.5C1011.36 2164.94 1007.07 2148.28 1020.5 2142.5C1030.36 2138.25 1042.61 2151.79 1048 2142.5C1078.5 2090 1139.5 2013 1137.5 2038.5C1137.5 2038.5 1122.08 2074.68 1129 2096.5C1144.81 2146.37 1244.5 2024 1257.5 2049C1270.15 2073.33 1226.5 2115 1242 2120C1250.76 2122.83 1260.33 2113.78 1266.58 2106.1C1270.84 2100.21 1273.43 2096.5 1273.43 2096.5Z" fill="black" fill-opacity="0.15"/>
<g id="WINDWO SCAFO_2">
<path id="Vector 9_2" d="M915 1833.5V1807L974.5 1840.5V1868L915 1833.5Z" fill="black" fill-opacity="0.15"/>
<path id="Vector 10_2" d="M1015 1888.5V1862L1074.5 1895.5V1923L1015 1888.5Z" fill="black" fill-opacity="0.15"/>
<path id="Vector 11_2" d="M1164 1976.5V1950L1200 1970V1995.5L1164 1976.5Z" fill="black" fill-opacity="0.15"/>
<path id="Vector 12_2" d="M1219 2006.5V1980L1255 2000V2025.5L1219 2006.5Z" fill="black" fill-opacity="0.15"/>
</g>
<g id="LOWER WINDOWS_2">
<g id="Group 10_2">
<rect width="43" height="25" transform="translate(842 1628)" fill="black" fill-opacity="0.15"/>
<path id="Vector 3_11" d="M847 1653H857L853.2 1634H843.2L847 1653Z" fill="#0881D1"/>
<path id="Vector 6_11" d="M852 1628H842L843.2 1634H853.2L852 1628Z" fill="#07020D"/>
<path id="Vector 4_11" d="M856 1628H866L867.2 1634L871 1653H861L857.2 1634L856 1628Z" fill="#0881D1"/>
<path id="Vector 7_11" d="M866 1628H856L857.2 1634H867.2L866 1628Z" fill="#07020D"/>
<path id="Vector 5_11" d="M870 1628H880L881.2 1634L885 1653H875L871.2 1634L870 1628Z" fill="#0881D1"/>
<path id="Vector 8_11" d="M880 1628H870L871.2 1634H881.2L880 1628Z" fill="#07020D"/>
</g>
<g id="Group 27_2">
<rect width="43" height="25" transform="translate(925 1628)" fill="black" fill-opacity="0.15"/>
<path id="Vector 3_12" d="M930 1653H940L936.2 1634H926.2L930 1653Z" fill="#0881D1"/>
<path id="Vector 6_12" d="M935 1628H925L926.2 1634H936.2L935 1628Z" fill="#07020D"/>
<path id="Vector 4_12" d="M939 1628H949L950.2 1634L954 1653H944L940.2 1634L939 1628Z" fill="#0881D1"/>
<path id="Vector 7_12" d="M949 1628H939L940.2 1634H950.2L949 1628Z" fill="#07020D"/>
<path id="Vector 5_12" d="M953 1628H963L964.2 1634L968 1653H958L954.2 1634L953 1628Z" fill="#0881D1"/>
<path id="Vector 8_12" d="M963 1628H953L954.2 1634H964.2L963 1628Z" fill="#07020D"/>
</g>
<g id="Group 30_2">
<rect width="43" height="25" transform="translate(937 1681)" fill="black" fill-opacity="0.15"/>
<path id="Vector 3_13" d="M942 1706H952L948.2 1687H938.2L942 1706Z" fill="#0881D1"/>
<path id="Vector 6_13" d="M947 1681H937L938.2 1687H948.2L947 1681Z" fill="#07020D"/>
<path id="Vector 4_13" d="M951 1681H961L962.2 1687L966 1706H956L952.2 1687L951 1681Z" fill="#0881D1"/>
<path id="Vector 7_13" d="M961 1681H951L952.2 1687H962.2L961 1681Z" fill="#07020D"/>
<path id="Vector 5_13" d="M965 1681H975L976.2 1687L980 1706H970L966.2 1687L965 1681Z" fill="#0881D1"/>
<path id="Vector 8_13" d="M975 1681H965L966.2 1687H976.2L975 1681Z" fill="#07020D"/>
</g>
<g id="Group 28_2">
<rect width="43" height="25" transform="translate(1015 1628)" fill="black" fill-opacity="0.15"/>
<path id="Vector 3_14" d="M1020 1653H1030L1026.2 1634H1016.2L1020 1653Z" fill="#0881D1"/>
<path id="Vector 6_14" d="M1025 1628H1015L1016.2 1634H1026.2L1025 1628Z" fill="#07020D"/>
<path id="Vector 4_14" d="M1029 1628H1039L1040.2 1634L1044 1653H1034L1030.2 1634L1029 1628Z" fill="#0881D1"/>
<path id="Vector 7_14" d="M1039 1628H1029L1030.2 1634H1040.2L1039 1628Z" fill="#07020D"/>
<path id="Vector 5_14" d="M1043 1628H1053L1054.2 1634L1058 1653H1048L1044.2 1634L1043 1628Z" fill="#0881D1"/>
<path id="Vector 8_14" d="M1053 1628H1043L1044.2 1634H1054.2L1053 1628Z" fill="#07020D"/>
</g>
<g id="Group 31_2">
<rect width="43" height="25" transform="translate(1027 1681)" fill="black" fill-opacity="0.15"/>
<path id="Vector 3_15" d="M1032 1706H1042L1038.2 1687H1028.2L1032 1706Z" fill="#0881D1"/>
<path id="Vector 6_15" d="M1037 1681H1027L1028.2 1687H1038.2L1037 1681Z" fill="#07020D"/>
<path id="Vector 4_15" d="M1041 1681H1051L1052.2 1687L1056 1706H1046L1042.2 1687L1041 1681Z" fill="#0881D1"/>
<path id="Vector 7_15" d="M1051 1681H1041L1042.2 1687H1052.2L1051 1681Z" fill="#07020D"/>
<path id="Vector 5_15" d="M1055 1681H1065L1066.2 1687L1070 1706H1060L1056.2 1687L1055 1681Z" fill="#0881D1"/>
<path id="Vector 8_15" d="M1065 1681H1055L1056.2 1687H1066.2L1065 1681Z" fill="#07020D"/>
</g>
<g id="Group 34_2">
<rect width="43" height="25" transform="translate(1037 1723)" fill="black" fill-opacity="0.15"/>
<path id="Vector 3_16" d="M1042 1748H1052L1048.2 1729H1038.2L1042 1748Z" fill="#0881D1"/>
<path id="Vector 6_16" d="M1047 1723H1037L1038.2 1729H1048.2L1047 1723Z" fill="#07020D"/>
<path id="Vector 4_16" d="M1051 1723H1061L1062.2 1729L1066 1748H1056L1052.2 1729L1051 1723Z" fill="#0881D1"/>
<path id="Vector 7_16" d="M1061 1723H1051L1052.2 1729H1062.2L1061 1723Z" fill="#07020D"/>
<path id="Vector 5_16" d="M1065 1723H1075L1076.2 1729L1080 1748H1070L1066.2 1729L1065 1723Z" fill="#0881D1"/>
<path id="Vector 8_16" d="M1075 1723H1065L1066.2 1729H1076.2L1075 1723Z" fill="#07020D"/>
</g>
<g id="Group 29_2">
<rect width="43" height="25" transform="translate(1102 1628)" fill="black" fill-opacity="0.15"/>
<path id="Vector 3_17" d="M1107 1653H1117L1113.2 1634H1103.2L1107 1653Z" fill="#0881D1"/>
<path id="Vector 6_17" d="M1112 1628H1102L1103.2 1634H1113.2L1112 1628Z" fill="#07020D"/>
<path id="Vector 4_17" d="M1116 1628H1126L1127.2 1634L1131 1653H1121L1117.2 1634L1116 1628Z" fill="#0881D1"/>
<path id="Vector 7_17" d="M1126 1628H1116L1117.2 1634H1127.2L1126 1628Z" fill="#07020D"/>
<path id="Vector 5_17" d="M1130 1628H1140L1141.2 1634L1145 1653H1135L1131.2 1634L1130 1628Z" fill="#0881D1"/>
<path id="Vector 8_17" d="M1140 1628H1130L1131.2 1634H1141.2L1140 1628Z" fill="#07020D"/>
</g>
<g id="Group 32_2">
<rect width="43" height="25" transform="translate(1114 1681)" fill="black" fill-opacity="0.15"/>
<path id="Vector 3_18" d="M1119 1706H1129L1125.2 1687H1115.2L1119 1706Z" fill="#0881D1"/>
<path id="Vector 6_18" d="M1124 1681H1114L1115.2 1687H1125.2L1124 1681Z" fill="#07020D"/>
<path id="Vector 4_18" d="M1128 1681H1138L1139.2 1687L1143 1706H1133L1129.2 1687L1128 1681Z" fill="#0881D1"/>
<path id="Vector 7_18" d="M1138 1681H1128L1129.2 1687H1139.2L1138 1681Z" fill="#07020D"/>
<path id="Vector 5_18" d="M1142 1681H1152L1153.2 1687L1157 1706H1147L1143.2 1687L1142 1681Z" fill="#0881D1"/>
<path id="Vector 8_18" d="M1152 1681H1142L1143.2 1687H1153.2L1152 1681Z" fill="#07020D"/>
</g>
<g id="Group 35_2">
<rect width="43" height="25" transform="translate(1124 1723)" fill="black" fill-opacity="0.15"/>
<path id="Vector 3_19" d="M1129 1748H1139L1135.2 1729H1125.2L1129 1748Z" fill="#0881D1"/>
<path id="Vector 6_19" d="M1134 1723H1124L1125.2 1729H1135.2L1134 1723Z" fill="#07020D"/>
<path id="Vector 4_19" d="M1138 1723H1148L1149.2 1729L1153 1748H1143L1139.2 1729L1138 1723Z" fill="#0881D1"/>
<path id="Vector 7_19" d="M1148 1723H1138L1139.2 1729H1149.2L1148 1723Z" fill="#07020D"/>
<path id="Vector 5_19" d="M1152 1723H1162L1163.2 1729L1167 1748H1157L1153.2 1729L1152 1723Z" fill="#0881D1"/>
<path id="Vector 8_19" d="M1162 1723H1152L1153.2 1729H1163.2L1162 1723Z" fill="#07020D"/>
</g>
<g id="Group 38_2">
<rect width="43" height="25" transform="translate(1134 1782)" fill="black" fill-opacity="0.15"/>
<path id="Vector 3_20" d="M1139 1807H1149L1145.2 1788H1135.2L1139 1807Z" fill="#0881D1"/>
<path id="Vector 6_20" d="M1144 1782H1134L1135.2 1788H1145.2L1144 1782Z" fill="#07020D"/>
<path id="Vector 4_20" d="M1148 1782H1158L1159.2 1788L1163 1807H1153L1149.2 1788L1148 1782Z" fill="#0881D1"/>
<path id="Vector 7_20" d="M1158 1782H1148L1149.2 1788H1159.2L1158 1782Z" fill="#07020D"/>
<path id="Vector 5_20" d="M1162 1782H1172L1173.2 1788L1177 1807H1167L1163.2 1788L1162 1782Z" fill="#0881D1"/>
<path id="Vector 8_20" d="M1172 1782H1162L1163.2 1788H1173.2L1172 1782Z" fill="#07020D"/>
</g>
</g>
<g id="STROKE">
<path d="M786 2469.5V1635C786 1635 807.449 1640.86 841.5 1652.09L828.606 1618.5H1004.5L949.5 1590H817.667H786V1580H949.5V1485V1474.5H1146.92L1137.16 1441.5H786V1432.5H1134.5C1134.5 1432.5 1127.93 1409.63 1117 1400.5C1114.92 1398.76 1112.39 1397.27 1109.64 1396H786V1389H1082C1082 1389 1097.79 1390.5 1109.64 1396C1112.39 1397.27 1114.92 1398.76 1117 1400.5C1127.93 1409.63 1134.5 1432.5 1134.5 1432.5H786V1441.5H1137.16L1146.92 1474.5H949.5L977 1487.75H1150.83L1154.75 1501H1004.5V1512V1609H1266.4L1263 1618.5H1178H1004.5H828.606L841.5 1652.09C853.535 1656.06 867.144 1660.71 881.937 1666C943.783 1688.13 1026.32 1721.65 1101 1765C1232 1836 1304.5 1936 1304.5 1936C1277 2153 1226 2232.5 1129 2341C1020.74 2462.09 786 2469.5 786 2469.5Z" fill="black" fill-opacity="0.15"/>
<path d="M802.85 1332.5L804.25 1346.5H806V1332.5H802.85Z" fill="black" fill-opacity="0.15"/>
<path d="M1193.5 1659L1178 1618.5M1305 1501H1154.75M1004.5 1501H1154.75M1004.5 1501V1512M1004.5 1501L977 1487.75M949.5 1474.5H786M949.5 1474.5V1485M949.5 1474.5H1146.92L1137.16 1441.5H786V1432.5H1134.5C1134.5 1432.5 1127.93 1409.63 1117 1400.5C1114.92 1398.76 1112.39 1397.27 1109.64 1396M949.5 1474.5L977 1487.75M786 1618.5H828.606M1004.5 1618.5L949.5 1590M1004.5 1618.5V1609M1004.5 1618.5H1178M1004.5 1618.5H828.606M949.5 1590V1580M949.5 1590H817.667H786V1580H949.5M1178 1618.5H1263L1266.4 1609H1004.5M1154.75 1501L1150.83 1487.75H977M1101 1765C1232 1836 1304.5 1936 1304.5 1936C1277 2153 1226 2232.5 1129 2341C1020.74 2462.09 786 2469.5 786 2469.5V1635C786 1635 807.449 1640.86 841.5 1652.09M1101 1765C1026.32 1721.65 943.783 1688.13 881.937 1666M1101 1765H1235.98M841.5 1652.09C853.535 1656.06 867.144 1660.71 881.937 1666M841.5 1652.09L828.606 1618.5M949.5 1580L1004.5 1609M949.5 1580V1485M1004.5 1609V1512M1004.5 1512L949.5 1485M1004.5 1512H1301.07M949.5 1485H786M1109.64 1396C1097.79 1390.5 1082 1389 1082 1389H786V1396H1109.64ZM1196.31 1666H881.937M804.25 1346.5L802.85 1332.5C802.85 1332.5 804.77 1332.5 806 1332.5C806 1337.97 806 1346.5 806 1346.5H804.25Z" stroke="#83BD4C" stroke-width="3"/>
</g>
</g>
</mask>
<g mask="url(#mask0_120_3701)">
<rect id="Rectangle 13" width="613" height="1516" transform="matrix(-1 0 0 1 1399 1159)" fill="black" fill-opacity="0.15"/>
</g>
</g>
<path id="STROKE_2" d="M1193.5 1659L1178 1618.5M1263 1618.5H1178M1305 1501H1154.75M1004.5 1501H1154.75M1004.5 1501V1512M1004.5 1501L977 1487.75M949.5 1474.5H786M949.5 1474.5V1485M949.5 1474.5H1146.92L1137.16 1441.5H786V1432.5H1134.5C1134.5 1432.5 1127.93 1409.63 1117 1400.5C1114.92 1398.76 1112.39 1397.27 1109.64 1396M949.5 1474.5L977 1487.75M786 1618.5H828.606M1004.5 1618.5L949.5 1590M1004.5 1618.5V1609M1004.5 1618.5H1178M1004.5 1618.5H828.606M949.5 1590V1580M949.5 1590H796.5H786M1154.75 1501L1150.83 1487.75H977M1101 1765C1232 1836 1304.5 1936 1304.5 1936C1277 2153 1226 2232.5 1129 2341C1020.74 2462.09 786 2469.5 786 2469.5V1635C786 1635 807.449 1640.86 841.5 1652.09M1101 1765C1026.32 1721.65 943.783 1688.13 881.937 1666M1101 1765H1235.98M786 1580H949.5M841.5 1652.09C853.535 1656.06 867.144 1660.71 881.937 1666M841.5 1652.09L828.606 1618.5M949.5 1580L1004.5 1609M949.5 1580V1485M1004.5 1609V1512M1004.5 1609H1266.4M1004.5 1512L949.5 1485M1004.5 1512H1301.07M949.5 1485H786M1109.64 1396C1097.79 1390.5 1082 1389 1082 1389H786V1396H1109.64ZM1196.31 1666H881.937M804.25 1346.5L802.85 1332.5C802.85 1332.5 804.77 1332.5 806 1332.5C806 1337.97 806 1346.5 806 1346.5H804.25Z" stroke="#83BD4C" stroke-width="2" stroke-linecap="round" stroke-linejoin="round"/>
</g>
<g id="R_2">
<g id="WHITE BG_3">
<path d="M786 1474.5H622.5H425.084L421.167 1487.75L417.25 1501H267L270.932 1512L305.604 1609L309 1618.5H317L375.695 1666L336.023 1765L267.5 1936C267.5 1936 340 1836 471 1765C545.681 1721.65 628.217 1688.13 690.063 1666C704.856 1660.71 718.465 1656.06 730.5 1652.09C764.551 1640.86 786 1635 786 1635V1618.5V1590V1580V1507.5V1491V1474.5Z" fill="#FCFCFC"/>
<path d="M437.5 1432.5H786V1441.5H434.839L437.5 1432.5Z" fill="#FCFCFC"/>
<path d="M786 1389H490C490 1389 474.21 1390.5 462.36 1396H786V1389Z" fill="#FCFCFC"/>
<path d="M786 1373.5V1384H764L767.75 1346.5L769.15 1332.5L772.5 1299H786V1373.5Z" fill="#FCFCFC"/>
<path d="M766 1332.5H727.5C727.5 1332.5 722.5 1333.5 722.5 1339.5C722.5 1345.5 727.5 1346.5 727.5 1346.5H766V1332.5Z" fill="#FCFCFC"/>
</g>
<g id="Group 26_3">
<g id="WINDOW_BG_3">
<path d="M609 1512L576 1527V1594.94L609 1577.24V1512Z" fill="url(#paint13_linear_120_3701)"/>
<path d="M786 1570V1507.5H738.5V1570H786Z" fill="url(#paint14_linear_120_3701)"/>
<path d="M683.5 1507.5H729V1570H683.5V1507.5Z" fill="url(#paint15_linear_120_3701)"/>
<path d="M674 1506H631.5V1570H674V1506Z" fill="url(#paint16_linear_120_3701)"/>
<path d="M539 1531V1600.5H559V1531H539Z" fill="url(#paint17_linear_120_3701)"/>
<path d="M484.5 1531V1600.5H529.5V1531H484.5Z" fill="url(#paint18_linear_120_3701)"/>
<path d="M429 1531H474.5V1600.5H429V1531Z" fill="url(#paint19_linear_120_3701)"/>
<path d="M373 1531H419V1600.5H373V1531Z" fill="url(#paint20_linear_120_3701)"/>
<path d="M318 1531H363.5V1600.5H318V1531Z" fill="url(#paint21_linear_120_3701)"/>
<path d="M309 1599.5V1531H286.737L309 1599.5Z" fill="url(#paint22_linear_120_3701)"/>
<path d="M786 1474.5V1462.5V1458V1444H754.5H750H724.5H720H694.5H690H664.5H660H634.5H630H604.5H600H574.5H570H544.5H540H514.5H510H485.5H481H455.5H451H434.1L429.962 1458L428.631 1462.5L425.084 1474.5H445.5H450H475.5H480H504.5H509H534.5H539H564.5H569H594.5H599H624.5H629H654.5H659H684.5H689H714.5H719H744.5H749H786Z" fill="url(#paint23_linear_120_3701)"/>
</g>
<g id="WINDOW_STROKE_3">
<path d="M448.475 1458H429.962L428.631 1462.5H447.664L445.5 1474.5H450L452.164 1462.5H477.664L475.5 1474.5H480L482.164 1462.5H506.664L504.5 1474.5H509L511.164 1462.5H536.664L534.5 1474.5H539L541.164 1462.5H566.664L564.5 1474.5H569L571.164 1462.5H596.664L594.5 1474.5H599L601.164 1462.5H626.664L624.5 1474.5H629L631.164 1462.5H656.664L654.5 1474.5H659L661.164 1462.5H686.664L684.5 1474.5H689L691.164 1462.5H716.664L714.5 1474.5H719L721.164 1462.5H746.664L744.5 1474.5H749L751.164 1462.5H786V1458H751.975L754.5 1444H750L747.475 1458H721.975L724.5 1444H720L717.475 1458H691.975L694.5 1444H690L687.475 1458H661.975L664.5 1444H660L657.475 1458H631.975L634.5 1444H630L627.475 1458H601.975L604.5 1444H600L597.475 1458H571.975L574.5 1444H570L567.475 1458H541.975L544.5 1444H540L537.475 1458H511.975L514.5 1444H510L507.475 1458H482.975L485.5 1444H481L478.475 1458H452.975L455.5 1444H451L448.475 1458Z" fill="black"/>
<path d="M614 1499V1574.5L609 1577.24V1512L576 1527V1518.67L614 1499Z" fill="black"/>
<path d="M738.5 1507.5V1570H732.5V1495H786V1507.5H738.5Z" fill="black"/>
<path d="M729 1507.5V1495H678V1570H683.5V1507.5H729Z" fill="black"/>
<path d="M631.5 1495H674V1506H631.5V1495Z" fill="black"/>
<path d="M533 1600.5V1519.5H559V1531H539V1600.5H533Z" fill="black"/>
<path d="M477.5 1519.5H529.5V1531H484.5V1600.5H477.5V1519.5Z" fill="black"/>
<path d="M474.5 1531V1519.5H422V1600.5H429V1531H474.5Z" fill="black"/>
<path d="M373 1531H419V1519.5H367V1600.5H373V1531Z" fill="black"/>
<path d="M363.5 1531V1519.5H311.5V1600.5H318V1531H363.5Z" fill="black"/>
<path d="M309 1519.5H283L286.737 1531H309V1519.5Z" fill="black"/>
</g>
<path id="WINDWO_BG_UP_3" d="M782 1398H777.5L462 1396.5C460.667 1397.18 454.4 1400.68 452 1403.27L447.5 1409.5L446 1412L438 1431H447.5H452H477.5H482H507.5H512H537.5H542H567.5H572H597.5H602H627.5H632H657.5H662H687.5H692H717.5H722H747.5H752H777.5H782H786V1412V1398H782Z" fill="url(#paint24_linear_120_3701)"/>
<path id="WINDWO_STROKE_UP_3" d="M782 1398H777.5V1412H752V1398H747.5V1412H722V1398H717.5V1412H692V1398H687.5V1412H662V1398H657.5V1412H632V1398H627.5V1412H602V1398H597.5V1412H572V1398H567.5V1412H542V1398H537.5V1412H512V1398H507.5V1412H482V1398H477.5V1412H452V1403.27L447.5 1409.5V1412H446L443 1416H447.5V1431H452V1416H477.5V1431H482V1416H507.5V1431H512V1416H537.5V1431H542V1416H567.5V1431H572V1416H597.5V1431H602V1416H627.5V1431H632V1416H657.5V1431H662V1416H687.5V1431H692V1416H717.5V1431H722V1416H747.5V1431H752V1416H777.5V1431H782V1416H786V1412H782V1398Z" fill="black"/>
</g>
<path id="SCAFO_3" d="M443 2341C551.255 2462.09 786 2469.5 786 2469.5V2169.5V1810.5C786 1810.5 736.5 1810.5 736.5 1759C736.5 1707.5 786 1707.5 786 1707.5V1635C786 1635 764.551 1640.86 730.5 1652.09C718.465 1656.06 704.856 1660.71 690.063 1666C679.438 1669.8 668.202 1673.94 656.5 1678.41C600.089 1699.94 532.85 1729.09 471 1765C398.953 1804.05 344.602 1851.87 310.273 1887C291.301 1906.42 278.445 1921.96 272.098 1930C269.047 1933.87 267.5 1936 267.5 1936C295 2153 346 2232.5 443 2341Z" fill="url(#paint25_radial_120_3701)"/>
<path id="SCAFO_WHITE_3" d="M443 2341C551.255 2462.09 786 2469.5 786 2469.5V2335.5V2188V2169.5V1810.5C786 1810.5 736.5 1810.5 736.5 1759C736.5 1707.5 786 1707.5 786 1707.5V1635C786 1635 764.551 1640.86 730.5 1652.09C718.465 1656.06 704.856 1660.71 690.063 1666C679.438 1669.8 668.202 1673.94 656.5 1678.41L786 2169.5V2188C786 2188 676.377 2118.56 576 2041C543 2015.5 468.042 1966.46 438 1969.5C398.5 1973.5 440.24 2021.88 410.5 2041C366.636 2069.2 292.5 1954.82 292.5 1978.5C292.5 2007.03 301.5 2051 301.5 2051H286.993C279.436 2017.28 272.998 1979.39 267.5 1936C267.5 1936 269.047 1933.87 272.098 1930C272.098 1930 289.701 1961.5 308.5 1961.5C321.5 1961.5 310.273 1887 310.273 1887C291.301 1906.42 278.445 1921.96 272.098 1930C269.047 1933.87 267.5 1936 267.5 1936C272.998 1979.39 279.436 2017.28 286.993 2051C290.592 2067.06 294.446 2082.18 298.573 2096.5C317.597 2162.5 342.431 2211.47 374.978 2257.5C377.5 2238 362.478 2222 374.978 2232C383.03 2238.44 384.328 2234.5 380.478 2229.5C377.474 2225.89 374.671 2222.36 372.119 2219C371.246 2216.83 370.4 2213.1 374 2215.5C377.6 2217.9 410.881 2258.17 427.072 2278C427.072 2278 429.77 2284.87 430.5 2289.5C433.923 2311.21 380.5 2234.5 389 2251.5C396.871 2267.24 403 2294.34 403 2294.34C415.38 2309.62 428.69 2324.99 443 2341Z" fill="#FDFDFD"/>
<path id="SCAFO_BLUE_3" d="M298.573 2096.5C298.573 2096.5 301.26 2101 305.416 2106.1C320.289 2126.74 355.471 2174.18 371 2183.5C411 2207.5 419 2177.5 419 2177.5C419 2177.5 443 2227 443 2236C443 2245 365.5 2189.5 360.5 2186.5C355.5 2183.5 357.5 2194.5 371 2206C384.5 2217.5 454 2303.5 456 2304.91C458 2306.31 458.595 2305.8 458.5 2304.5C457 2284 453.391 2286.83 428.5 2248.5C403.609 2210.17 506.458 2305.64 543 2320C557 2325.5 535.938 2278.33 529.5 2251C522.114 2219.65 752.925 2407.18 779 2335.5C779 2335.5 771.325 2298.69 757.5 2280C743.26 2260.75 731.785 2249.85 709 2242.5C688.373 2235.84 673.324 2251.26 653.5 2242.5C638.075 2235.68 621.5 2213.5 621.5 2213.5C621.5 2213.5 601.114 2205.85 598.5 2194.5C597.536 2190.31 599.82 2187.59 598.5 2183.5C595.158 2173.15 581.321 2179.87 572.5 2173.5C560.644 2164.94 564.93 2148.28 551.5 2142.5C541.636 2138.25 529.395 2151.79 524 2142.5C493.5 2090 432.5 2013 434.5 2038.5C434.5 2038.5 449.918 2074.68 443 2096.5C427.19 2146.37 327.5 2024 314.5 2049C301.85 2073.33 345.5 2115 330 2120C321.24 2122.83 311.666 2113.78 305.416 2106.1C301.165 2100.21 298.573 2096.5 298.573 2096.5Z" fill="#5DB7DE"/>
<g id="WINDWO SCAFO_3">
<path id="Vector 9_3" d="M657 1833.5V1807L597.5 1840.5V1868L657 1833.5Z" fill="#07020D"/>
<path id="Vector 10_3" d="M557 1888.5V1862L497.5 1895.5V1923L557 1888.5Z" fill="#07020D"/>
<path id="Vector 11_3" d="M408 1976.5V1950L372 1970V1995.5L408 1976.5Z" fill="#07020D"/>
<path id="Vector 12_3" d="M353 2006.5V1980L317 2000V2025.5L353 2006.5Z" fill="#07020D"/>
</g>
<g id="LOWER WINDOWS_3">
<g id="Group 10_3">
<path id="Vector 3_21" d="M725 1653H715L718.8 1634H728.8L725 1653Z" fill="#0881D1"/>
<path id="Vector 6_21" d="M720 1628H730L728.8 1634H718.8L720 1628Z" fill="#07020D"/>
<path id="Vector 4_21" d="M716 1628H706L704.8 1634L701 1653H711L714.8 1634L716 1628Z" fill="#0881D1"/>
<path id="Vector 7_21" d="M706 1628H716L714.8 1634H704.8L706 1628Z" fill="#07020D"/>
<path id="Vector 5_21" d="M702 1628H692L690.8 1634L687 1653H697L700.8 1634L702 1628Z" fill="#0881D1"/>
<path id="Vector 8_21" d="M692 1628H702L700.8 1634H690.8L692 1628Z" fill="#07020D"/>
</g>
<g id="Group 27_3">
<path id="Vector 3_22" d="M642 1653H632L635.8 1634H645.8L642 1653Z" fill="#0881D1"/>
<path id="Vector 6_22" d="M637 1628H647L645.8 1634H635.8L637 1628Z" fill="#07020D"/>
<path id="Vector 4_22" d="M633 1628H623L621.8 1634L618 1653H628L631.8 1634L633 1628Z" fill="#0881D1"/>
<path id="Vector 7_22" d="M623 1628H633L631.8 1634H621.8L623 1628Z" fill="#07020D"/>
<path id="Vector 5_22" d="M619 1628H609L607.8 1634L604 1653H614L617.8 1634L619 1628Z" fill="#0881D1"/>
<path id="Vector 8_22" d="M609 1628H619L617.8 1634H607.8L609 1628Z" fill="#07020D"/>
</g>
<g id="Group 30_3">
<path id="Vector 3_23" d="M630 1706H620L623.8 1687H633.8L630 1706Z" fill="#0881D1"/>
<path id="Vector 6_23" d="M625 1681H635L633.8 1687H623.8L625 1681Z" fill="#07020D"/>
<path id="Vector 4_23" d="M621 1681H611L609.8 1687L606 1706H616L619.8 1687L621 1681Z" fill="#0881D1"/>
<path id="Vector 7_23" d="M611 1681H621L619.8 1687H609.8L611 1681Z" fill="#07020D"/>
<path id="Vector 5_23" d="M607 1681H597L595.8 1687L592 1706H602L605.8 1687L607 1681Z" fill="#0881D1"/>
<path id="Vector 8_23" d="M597 1681H607L605.8 1687H595.8L597 1681Z" fill="#07020D"/>
</g>
<g id="Group 28_3">
<path id="Vector 3_24" d="M552 1653H542L545.8 1634H555.8L552 1653Z" fill="#0881D1"/>
<path id="Vector 6_24" d="M547 1628H557L555.8 1634H545.8L547 1628Z" fill="#07020D"/>
<path id="Vector 4_24" d="M543 1628H533L531.8 1634L528 1653H538L541.8 1634L543 1628Z" fill="#0881D1"/>
<path id="Vector 7_24" d="M533 1628H543L541.8 1634H531.8L533 1628Z" fill="#07020D"/>
<path id="Vector 5_24" d="M529 1628H519L517.8 1634L514 1653H524L527.8 1634L529 1628Z" fill="#0881D1"/>
<path id="Vector 8_24" d="M519 1628H529L527.8 1634H517.8L519 1628Z" fill="#07020D"/>
</g>
<g id="Group 31_3">
<path id="Vector 3_25" d="M540 1706H530L533.8 1687H543.8L540 1706Z" fill="#0881D1"/>
<path id="Vector 6_25" d="M535 1681H545L543.8 1687H533.8L535 1681Z" fill="#07020D"/>
<path id="Vector 4_25" d="M531 1681H521L519.8 1687L516 1706H526L529.8 1687L531 1681Z" fill="#0881D1"/>
<path id="Vector 7_25" d="M521 1681H531L529.8 1687H519.8L521 1681Z" fill="#07020D"/>
<path id="Vector 5_25" d="M517 1681H507L505.8 1687L502 1706H512L515.8 1687L517 1681Z" fill="#0881D1"/>
<path id="Vector 8_25" d="M507 1681H517L515.8 1687H505.8L507 1681Z" fill="#07020D"/>
</g>
<g id="Group 34_3">
<path id="Vector 3_26" d="M530 1748H520L523.8 1729H533.8L530 1748Z" fill="#0881D1"/>
<path id="Vector 6_26" d="M525 1723H535L533.8 1729H523.8L525 1723Z" fill="#07020D"/>
<path id="Vector 4_26" d="M521 1723H511L509.8 1729L506 1748H516L519.8 1729L521 1723Z" fill="#0881D1"/>
<path id="Vector 7_26" d="M511 1723H521L519.8 1729H509.8L511 1723Z" fill="#07020D"/>
<path id="Vector 5_26" d="M507 1723H497L495.8 1729L492 1748H502L505.8 1729L507 1723Z" fill="#0881D1"/>
<path id="Vector 8_26" d="M497 1723H507L505.8 1729H495.8L497 1723Z" fill="#07020D"/>
</g>
<g id="Group 29_3">
<path id="Vector 3_27" d="M465 1653H455L458.8 1634H468.8L465 1653Z" fill="#0881D1"/>
<path id="Vector 6_27" d="M460 1628H470L468.8 1634H458.8L460 1628Z" fill="#07020D"/>
<path id="Vector 4_27" d="M456 1628H446L444.8 1634L441 1653H451L454.8 1634L456 1628Z" fill="#0881D1"/>
<path id="Vector 7_27" d="M446 1628H456L454.8 1634H444.8L446 1628Z" fill="#07020D"/>
<path id="Vector 5_27" d="M442 1628H432L430.8 1634L427 1653H437L440.8 1634L442 1628Z" fill="#0881D1"/>
<path id="Vector 8_27" d="M432 1628H442L440.8 1634H430.8L432 1628Z" fill="#07020D"/>
</g>
<g id="Group 32_3">
<path id="Vector 3_28" d="M453 1706H443L446.8 1687H456.8L453 1706Z" fill="#0881D1"/>
<path id="Vector 6_28" d="M448 1681H458L456.8 1687H446.8L448 1681Z" fill="#07020D"/>
<path id="Vector 4_28" d="M444 1681H434L432.8 1687L429 1706H439L442.8 1687L444 1681Z" fill="#0881D1"/>
<path id="Vector 7_28" d="M434 1681H444L442.8 1687H432.8L434 1681Z" fill="#07020D"/>
<path id="Vector 5_28" d="M430 1681H420L418.8 1687L415 1706H425L428.8 1687L430 1681Z" fill="#0881D1"/>
<path id="Vector 8_28" d="M420 1681H430L428.8 1687H418.8L420 1681Z" fill="#07020D"/>
</g>
<g id="Group 35_3">
<path id="Vector 3_29" d="M443 1748H433L436.8 1729H446.8L443 1748Z" fill="#0881D1"/>
<path id="Vector 6_29" d="M438 1723H448L446.8 1729H436.8L438 1723Z" fill="#07020D"/>
<path id="Vector 4_29" d="M434 1723H424L422.8 1729L419 1748H429L432.8 1729L434 1723Z" fill="#0881D1"/>
<path id="Vector 7_29" d="M424 1723H434L432.8 1729H422.8L424 1723Z" fill="#07020D"/>
<path id="Vector 5_29" d="M420 1723H410L408.8 1729L405 1748H415L418.8 1729L420 1723Z" fill="#0881D1"/>
<path id="Vector 8_29" d="M410 1723H420L418.8 1729H408.8L410 1723Z" fill="#07020D"/>
</g>
<g id="Group 38_3">
<path id="Vector 3_30" d="M433 1807H423L426.8 1788H436.8L433 1807Z" fill="#0881D1"/>
<path id="Vector 6_30" d="M428 1782H438L436.8 1788H426.8L428 1782Z" fill="#07020D"/>
<path id="Vector 4_30" d="M424 1782H414L412.8 1788L409 1807H419L422.8 1788L424 1782Z" fill="#0881D1"/>
<path id="Vector 7_30" d="M414 1782H424L422.8 1788H412.8L414 1782Z" fill="#07020D"/>
<path id="Vector 5_30" d="M410 1782H400L398.8 1788L395 1807H405L408.8 1788L410 1782Z" fill="#0881D1"/>
<path id="Vector 8_30" d="M400 1782H410L408.8 1788H398.8L400 1782Z" fill="#07020D"/>
</g>
</g>
<path id="SHADOW_LOW_2" d="M567.5 1617.5H786V1589H622.5L567.5 1617.5Z" fill="black" fill-opacity="0.08"/>
<g id="SHADOWS_2_2">
<path d="M567.5 1501H417.25L421.167 1487.75H595L567.5 1501Z" fill="black" fill-opacity="0.09"/>
<path d="M317.5 1618.5H394L375.695 1666L317.5 1618.5Z" fill="black" fill-opacity="0.09"/>
</g>
<g id="SHADOW_2">
<mask id="mask1_120_3701" style="mask-type:alpha" maskUnits="userSpaceOnUse" x="265" y="1299" width="523" height="1173">
<g id="L_2">
<g id="WHITE BG_4">
<path d="M786 1474.5H622.5H425.084L421.167 1487.75L417.25 1501H267L270.932 1512L305.604 1609L309 1618.5H317L375.695 1666L336.023 1765L267.5 1936C267.5 1936 340 1836 471 1765C545.681 1721.65 628.217 1688.13 690.063 1666C704.856 1660.71 718.465 1656.06 730.5 1652.09C764.551 1640.86 786 1635 786 1635V1618.5V1590V1580V1507.5V1491V1474.5Z" fill="black" fill-opacity="0.15"/>
<path d="M437.5 1432.5H786V1441.5H434.839L437.5 1432.5Z" fill="black" fill-opacity="0.15"/>
<path d="M786 1389H490C490 1389 474.21 1390.5 462.36 1396H786V1389Z" fill="black" fill-opacity="0.15"/>
<path d="M786 1373.5V1384H764L767.75 1346.5L769.15 1332.5L772.5 1299H786V1373.5Z" fill="black" fill-opacity="0.15"/>
<path d="M766 1332.5H727.5C727.5 1332.5 722.5 1333.5 722.5 1339.5C722.5 1345.5 727.5 1346.5 727.5 1346.5H766V1332.5Z" fill="black" fill-opacity="0.15"/>
</g>
<g id="Group 26_4">
<g id="WINDOW_BG_4">
<path d="M609 1512L576 1527V1594.94L609 1577.24V1512Z" fill="black" fill-opacity="0.15"/>
<path d="M786 1570V1507.5H738.5V1570H786Z" fill="black" fill-opacity="0.15"/>
<path d="M683.5 1507.5H729V1570H683.5V1507.5Z" fill="black" fill-opacity="0.15"/>
<path d="M674 1506H631.5V1570H674V1506Z" fill="black" fill-opacity="0.15"/>
<path d="M539 1531V1600.5H559V1531H539Z" fill="black" fill-opacity="0.15"/>
<path d="M484.5 1531V1600.5H529.5V1531H484.5Z" fill="black" fill-opacity="0.15"/>
<path d="M429 1531H474.5V1600.5H429V1531Z" fill="black" fill-opacity="0.15"/>
<path d="M373 1531H419V1600.5H373V1531Z" fill="black" fill-opacity="0.15"/>
<path d="M318 1531H363.5V1600.5H318V1531Z" fill="black" fill-opacity="0.15"/>
<path d="M309 1599.5V1531H286.737L309 1599.5Z" fill="black" fill-opacity="0.15"/>
<path d="M786 1474.5V1462.5V1458V1444H754.5H750H724.5H720H694.5H690H664.5H660H634.5H630H604.5H600H574.5H570H544.5H540H514.5H510H485.5H481H455.5H451H434.1L429.962 1458L428.631 1462.5L425.084 1474.5H445.5H450H475.5H480H504.5H509H534.5H539H564.5H569H594.5H599H624.5H629H654.5H659H684.5H689H714.5H719H744.5H749H786Z" fill="black" fill-opacity="0.15"/>
</g>
<g id="WINDOW_STROKE_4">
<path d="M448.475 1458H429.962L428.631 1462.5H447.664L445.5 1474.5H450L452.164 1462.5H477.664L475.5 1474.5H480L482.164 1462.5H506.664L504.5 1474.5H509L511.164 1462.5H536.664L534.5 1474.5H539L541.164 1462.5H566.664L564.5 1474.5H569L571.164 1462.5H596.664L594.5 1474.5H599L601.164 1462.5H626.664L624.5 1474.5H629L631.164 1462.5H656.664L654.5 1474.5H659L661.164 1462.5H686.664L684.5 1474.5H689L691.164 1462.5H716.664L714.5 1474.5H719L721.164 1462.5H746.664L744.5 1474.5H749L751.164 1462.5H786V1458H751.975L754.5 1444H750L747.475 1458H721.975L724.5 1444H720L717.475 1458H691.975L694.5 1444H690L687.475 1458H661.975L664.5 1444H660L657.475 1458H631.975L634.5 1444H630L627.475 1458H601.975L604.5 1444H600L597.475 1458H571.975L574.5 1444H570L567.475 1458H541.975L544.5 1444H540L537.475 1458H511.975L514.5 1444H510L507.475 1458H482.975L485.5 1444H481L478.475 1458H452.975L455.5 1444H451L448.475 1458Z" fill="black" fill-opacity="0.15"/>
<path d="M614 1499V1574.5L609 1577.24V1512L576 1527V1518.67L614 1499Z" fill="black" fill-opacity="0.15"/>
<path d="M738.5 1507.5V1570H732.5V1495H786V1507.5H738.5Z" fill="black" fill-opacity="0.15"/>
<path d="M729 1507.5V1495H678V1570H683.5V1507.5H729Z" fill="black" fill-opacity="0.15"/>
<path d="M631.5 1495H674V1506H631.5V1495Z" fill="black" fill-opacity="0.15"/>
<path d="M533 1600.5V1519.5H559V1531H539V1600.5H533Z" fill="black" fill-opacity="0.15"/>
<path d="M477.5 1519.5H529.5V1531H484.5V1600.5H477.5V1519.5Z" fill="black" fill-opacity="0.15"/>
<path d="M474.5 1531V1519.5H422V1600.5H429V1531H474.5Z" fill="black" fill-opacity="0.15"/>
<path d="M373 1531H419V1519.5H367V1600.5H373V1531Z" fill="black" fill-opacity="0.15"/>
<path d="M363.5 1531V1519.5H311.5V1600.5H318V1531H363.5Z" fill="black" fill-opacity="0.15"/>
<path d="M309 1519.5H283L286.737 1531H309V1519.5Z" fill="black" fill-opacity="0.15"/>
</g>
<path id="WINDWO_BG_UP_4" d="M782 1398H777.5H752H747.5H722H717.5H692H687.5H662H657.5H632H627.5H602H597.5H572H567.5H542H537.5H512H507.5H482H477.5H459C457.667 1398.68 454.4 1400.68 452 1403.27V1412H447.5V1431H452H477.5H482H507.5H512H537.5H542H567.5H572H597.5H602H627.5H632H657.5H662H687.5H692H717.5H722H747.5H752H777.5H782H786V1412V1398H782Z" fill="black" fill-opacity="0.15"/>
<path id="WINDWO_STROKE_UP_4" d="M782 1398H777.5V1412H752V1398H747.5V1412H722V1398H717.5V1412H692V1398H687.5V1412H662V1398H657.5V1412H632V1398H627.5V1412H602V1398H597.5V1412H572V1398H567.5V1412H542V1398H537.5V1412H512V1398H507.5V1412H482V1398H477.5V1412H452V1403.27L447.5 1409.5V1412H446L443 1416H447.5V1431H452V1416H477.5V1431H482V1416H507.5V1431H512V1416H537.5V1431H542V1416H567.5V1431H572V1416H597.5V1431H602V1416H627.5V1431H632V1416H657.5V1431H662V1416H687.5V1431H692V1416H717.5V1431H722V1416H747.5V1431H752V1416H777.5V1431H782V1416H786V1412H782V1398Z" fill="black" fill-opacity="0.15"/>
</g>
<path id="SCAFO_4" d="M443 2341C551.255 2462.09 786 2469.5 786 2469.5V2169.5V1810.5C786 1810.5 736.5 1810.5 736.5 1759C736.5 1707.5 786 1707.5 786 1707.5V1635C786 1635 764.551 1640.86 730.5 1652.09C718.465 1656.06 704.856 1660.71 690.063 1666C679.438 1669.8 668.202 1673.94 656.5 1678.41C600.089 1699.94 532.85 1729.09 471 1765C398.953 1804.05 344.602 1851.87 310.273 1887C291.301 1906.42 278.445 1921.96 272.098 1930C269.047 1933.87 267.5 1936 267.5 1936C295 2153 346 2232.5 443 2341Z" fill="black" fill-opacity="0.15"/>
<path id="SCAFO_WHITE_4" d="M443 2341C551.255 2462.09 786 2469.5 786 2469.5V2335.5V2188V2169.5V1810.5C786 1810.5 736.5 1810.5 736.5 1759C736.5 1707.5 786 1707.5 786 1707.5V1635C786 1635 764.551 1640.86 730.5 1652.09C718.465 1656.06 704.856 1660.71 690.063 1666C679.438 1669.8 668.202 1673.94 656.5 1678.41L786 2169.5V2188C786 2188 676.377 2118.56 576 2041C543 2015.5 468.042 1966.46 438 1969.5C398.5 1973.5 440.24 2021.88 410.5 2041C366.636 2069.2 292.5 1954.82 292.5 1978.5C292.5 2007.03 301.5 2051 301.5 2051H286.993C279.436 2017.28 272.998 1979.39 267.5 1936C267.5 1936 269.047 1933.87 272.098 1930C272.098 1930 289.701 1961.5 308.5 1961.5C321.5 1961.5 310.273 1887 310.273 1887C291.301 1906.42 278.445 1921.96 272.098 1930C269.047 1933.87 267.5 1936 267.5 1936C272.998 1979.39 279.436 2017.28 286.993 2051C290.592 2067.06 294.446 2082.18 298.573 2096.5C317.597 2162.5 342.431 2211.47 374.978 2257.5C377.5 2238 362.478 2222 374.978 2232C383.03 2238.44 384.328 2234.5 380.478 2229.5C377.474 2225.89 374.671 2222.36 372.119 2219C371.246 2216.83 370.4 2213.1 374 2215.5C377.6 2217.9 410.881 2258.17 427.072 2278C427.072 2278 429.77 2284.87 430.5 2289.5C433.923 2311.21 380.5 2234.5 389 2251.5C396.871 2267.24 403 2294.34 403 2294.34C415.38 2309.62 428.69 2324.99 443 2341Z" fill="black" fill-opacity="0.15"/>
<path id="SCAFO_BLUE_4" d="M298.573 2096.5C298.573 2096.5 301.26 2101 305.416 2106.1C320.289 2126.74 355.471 2174.18 371 2183.5C411 2207.5 419 2177.5 419 2177.5C419 2177.5 443 2227 443 2236C443 2245 365.5 2189.5 360.5 2186.5C355.5 2183.5 357.5 2194.5 371 2206C384.5 2217.5 454 2303.5 456 2304.91C458 2306.31 458.595 2305.8 458.5 2304.5C457 2284 453.391 2286.83 428.5 2248.5C403.609 2210.17 506.458 2305.64 543 2320C557 2325.5 535.938 2278.33 529.5 2251C522.114 2219.65 752.925 2407.18 779 2335.5C779 2335.5 771.325 2298.69 757.5 2280C743.26 2260.75 731.785 2249.85 709 2242.5C688.373 2235.84 673.324 2251.26 653.5 2242.5C638.075 2235.68 621.5 2213.5 621.5 2213.5C621.5 2213.5 601.114 2205.85 598.5 2194.5C597.536 2190.31 599.82 2187.59 598.5 2183.5C595.158 2173.15 581.321 2179.87 572.5 2173.5C560.644 2164.94 564.93 2148.28 551.5 2142.5C541.636 2138.25 529.395 2151.79 524 2142.5C493.5 2090 432.5 2013 434.5 2038.5C434.5 2038.5 449.918 2074.68 443 2096.5C427.19 2146.37 327.5 2024 314.5 2049C301.85 2073.33 345.5 2115 330 2120C321.24 2122.83 311.666 2113.78 305.416 2106.1C301.165 2100.21 298.573 2096.5 298.573 2096.5Z" fill="black" fill-opacity="0.15"/>
<g id="WINDWO SCAFO_4">
<path id="Vector 9_4" d="M657 1833.5V1807L597.5 1840.5V1868L657 1833.5Z" fill="black" fill-opacity="0.15"/>
<path id="Vector 10_4" d="M557 1888.5V1862L497.5 1895.5V1923L557 1888.5Z" fill="black" fill-opacity="0.15"/>
<path id="Vector 11_4" d="M408 1976.5V1950L372 1970V1995.5L408 1976.5Z" fill="black" fill-opacity="0.15"/>
<path id="Vector 12_4" d="M353 2006.5V1980L317 2000V2025.5L353 2006.5Z" fill="black" fill-opacity="0.15"/>
</g>
<g id="LOWER WINDOWS_4">
<g id="Group 10_4">
<rect width="43" height="25" transform="matrix(-1 0 0 1 730 1628)" fill="black" fill-opacity="0.15"/>
<path id="Vector 3_31" d="M725 1653H715L718.8 1634H728.8L725 1653Z" fill="#0881D1"/>
<path id="Vector 6_31" d="M720 1628H730L728.8 1634H718.8L720 1628Z" fill="#07020D"/>
<path id="Vector 4_31" d="M716 1628H706L704.8 1634L701 1653H711L714.8 1634L716 1628Z" fill="#0881D1"/>
<path id="Vector 7_31" d="M706 1628H716L714.8 1634H704.8L706 1628Z" fill="#07020D"/>
<path id="Vector 5_31" d="M702 1628H692L690.8 1634L687 1653H697L700.8 1634L702 1628Z" fill="#0881D1"/>
<path id="Vector 8_31" d="M692 1628H702L700.8 1634H690.8L692 1628Z" fill="#07020D"/>
</g>
<g id="Group 27_4">
<rect width="43" height="25" transform="matrix(-1 0 0 1 647 1628)" fill="black" fill-opacity="0.15"/>
<path id="Vector 3_32" d="M642 1653H632L635.8 1634H645.8L642 1653Z" fill="#0881D1"/>
<path id="Vector 6_32" d="M637 1628H647L645.8 1634H635.8L637 1628Z" fill="#07020D"/>
<path id="Vector 4_32" d="M633 1628H623L621.8 1634L618 1653H628L631.8 1634L633 1628Z" fill="#0881D1"/>
<path id="Vector 7_32" d="M623 1628H633L631.8 1634H621.8L623 1628Z" fill="#07020D"/>
<path id="Vector 5_32" d="M619 1628H609L607.8 1634L604 1653H614L617.8 1634L619 1628Z" fill="#0881D1"/>
<path id="Vector 8_32" d="M609 1628H619L617.8 1634H607.8L609 1628Z" fill="#07020D"/>
</g>
<g id="Group 30_4">
<rect width="43" height="25" transform="matrix(-1 0 0 1 635 1681)" fill="black" fill-opacity="0.15"/>
<path id="Vector 3_33" d="M630 1706H620L623.8 1687H633.8L630 1706Z" fill="#0881D1"/>
<path id="Vector 6_33" d="M625 1681H635L633.8 1687H623.8L625 1681Z" fill="#07020D"/>
<path id="Vector 4_33" d="M621 1681H611L609.8 1687L606 1706H616L619.8 1687L621 1681Z" fill="#0881D1"/>
<path id="Vector 7_33" d="M611 1681H621L619.8 1687H609.8L611 1681Z" fill="#07020D"/>
<path id="Vector 5_33" d="M607 1681H597L595.8 1687L592 1706H602L605.8 1687L607 1681Z" fill="#0881D1"/>
<path id="Vector 8_33" d="M597 1681H607L605.8 1687H595.8L597 1681Z" fill="#07020D"/>
</g>
<g id="Group 28_4">
<rect width="43" height="25" transform="matrix(-1 0 0 1 557 1628)" fill="black" fill-opacity="0.15"/>
<path id="Vector 3_34" d="M552 1653H542L545.8 1634H555.8L552 1653Z" fill="#0881D1"/>
<path id="Vector 6_34" d="M547 1628H557L555.8 1634H545.8L547 1628Z" fill="#07020D"/>
<path id="Vector 4_34" d="M543 1628H533L531.8 1634L528 1653H538L541.8 1634L543 1628Z" fill="#0881D1"/>
<path id="Vector 7_34" d="M533 1628H543L541.8 1634H531.8L533 1628Z" fill="#07020D"/>
<path id="Vector 5_34" d="M529 1628H519L517.8 1634L514 1653H524L527.8 1634L529 1628Z" fill="#0881D1"/>
<path id="Vector 8_34" d="M519 1628H529L527.8 1634H517.8L519 1628Z" fill="#07020D"/>
</g>
<g id="Group 31_4">
<rect width="43" height="25" transform="matrix(-1 0 0 1 545 1681)" fill="black" fill-opacity="0.15"/>
<path id="Vector 3_35" d="M540 1706H530L533.8 1687H543.8L540 1706Z" fill="#0881D1"/>
<path id="Vector 6_35" d="M535 1681H545L543.8 1687H533.8L535 1681Z" fill="#07020D"/>
<path id="Vector 4_35" d="M531 1681H521L519.8 1687L516 1706H526L529.8 1687L531 1681Z" fill="#0881D1"/>
<path id="Vector 7_35" d="M521 1681H531L529.8 1687H519.8L521 1681Z" fill="#07020D"/>
<path id="Vector 5_35" d="M517 1681H507L505.8 1687L502 1706H512L515.8 1687L517 1681Z" fill="#0881D1"/>
<path id="Vector 8_35" d="M507 1681H517L515.8 1687H505.8L507 1681Z" fill="#07020D"/>
</g>
<g id="Group 34_4">
<rect width="43" height="25" transform="matrix(-1 0 0 1 535 1723)" fill="black" fill-opacity="0.15"/>
<path id="Vector 3_36" d="M530 1748H520L523.8 1729H533.8L530 1748Z" fill="#0881D1"/>
<path id="Vector 6_36" d="M525 1723H535L533.8 1729H523.8L525 1723Z" fill="#07020D"/>
<path id="Vector 4_36" d="M521 1723H511L509.8 1729L506 1748H516L519.8 1729L521 1723Z" fill="#0881D1"/>
<path id="Vector 7_36" d="M511 1723H521L519.8 1729H509.8L511 1723Z" fill="#07020D"/>
<path id="Vector 5_36" d="M507 1723H497L495.8 1729L492 1748H502L505.8 1729L507 1723Z" fill="#0881D1"/>
<path id="Vector 8_36" d="M497 1723H507L505.8 1729H495.8L497 1723Z" fill="#07020D"/>
</g>
<g id="Group 29_4">
<rect width="43" height="25" transform="matrix(-1 0 0 1 470 1628)" fill="black" fill-opacity="0.15"/>
<path id="Vector 3_37" d="M465 1653H455L458.8 1634H468.8L465 1653Z" fill="#0881D1"/>
<path id="Vector 6_37" d="M460 1628H470L468.8 1634H458.8L460 1628Z" fill="#07020D"/>
<path id="Vector 4_37" d="M456 1628H446L444.8 1634L441 1653H451L454.8 1634L456 1628Z" fill="#0881D1"/>
<path id="Vector 7_37" d="M446 1628H456L454.8 1634H444.8L446 1628Z" fill="#07020D"/>
<path id="Vector 5_37" d="M442 1628H432L430.8 1634L427 1653H437L440.8 1634L442 1628Z" fill="#0881D1"/>
<path id="Vector 8_37" d="M432 1628H442L440.8 1634H430.8L432 1628Z" fill="#07020D"/>
</g>
<g id="Group 32_4">
<rect width="43" height="25" transform="matrix(-1 0 0 1 458 1681)" fill="black" fill-opacity="0.15"/>
<path id="Vector 3_38" d="M453 1706H443L446.8 1687H456.8L453 1706Z" fill="#0881D1"/>
<path id="Vector 6_38" d="M448 1681H458L456.8 1687H446.8L448 1681Z" fill="#07020D"/>
<path id="Vector 4_38" d="M444 1681H434L432.8 1687L429 1706H439L442.8 1687L444 1681Z" fill="#0881D1"/>
<path id="Vector 7_38" d="M434 1681H444L442.8 1687H432.8L434 1681Z" fill="#07020D"/>
<path id="Vector 5_38" d="M430 1681H420L418.8 1687L415 1706H425L428.8 1687L430 1681Z" fill="#0881D1"/>
<path id="Vector 8_38" d="M420 1681H430L428.8 1687H418.8L420 1681Z" fill="#07020D"/>
</g>
<g id="Group 35_4">
<rect width="43" height="25" transform="matrix(-1 0 0 1 448 1723)" fill="black" fill-opacity="0.15"/>
<path id="Vector 3_39" d="M443 1748H433L436.8 1729H446.8L443 1748Z" fill="#0881D1"/>
<path id="Vector 6_39" d="M438 1723H448L446.8 1729H436.8L438 1723Z" fill="#07020D"/>
<path id="Vector 4_39" d="M434 1723H424L422.8 1729L419 1748H429L432.8 1729L434 1723Z" fill="#0881D1"/>
<path id="Vector 7_39" d="M424 1723H434L432.8 1729H422.8L424 1723Z" fill="#07020D"/>
<path id="Vector 5_39" d="M420 1723H410L408.8 1729L405 1748H415L418.8 1729L420 1723Z" fill="#0881D1"/>
<path id="Vector 8_39" d="M410 1723H420L418.8 1729H408.8L410 1723Z" fill="#07020D"/>
</g>
<g id="Group 38_4">
<rect width="43" height="25" transform="matrix(-1 0 0 1 438 1782)" fill="black" fill-opacity="0.15"/>
<path id="Vector 3_40" d="M433 1807H423L426.8 1788H436.8L433 1807Z" fill="#0881D1"/>
<path id="Vector 6_40" d="M428 1782H438L436.8 1788H426.8L428 1782Z" fill="#07020D"/>
<path id="Vector 4_40" d="M424 1782H414L412.8 1788L409 1807H419L422.8 1788L424 1782Z" fill="#0881D1"/>
<path id="Vector 7_40" d="M414 1782H424L422.8 1788H412.8L414 1782Z" fill="#07020D"/>
<path id="Vector 5_40" d="M410 1782H400L398.8 1788L395 1807H405L408.8 1788L410 1782Z" fill="#0881D1"/>
<path id="Vector 8_40" d="M400 1782H410L408.8 1788H398.8L400 1782Z" fill="#07020D"/>
</g>
</g>
<g id="STROKE_3">
<path d="M786 2469.5V1635C786 1635 764.551 1640.86 730.5 1652.09L743.394 1618.5H567.5L622.5 1590H754.333H786V1580H622.5V1485V1474.5H425.084L434.839 1441.5H786V1432.5H437.5C437.5 1432.5 444.068 1409.63 455 1400.5C457.078 1398.76 459.613 1397.27 462.36 1396H786V1389H490C490 1389 474.21 1390.5 462.36 1396C459.613 1397.27 457.078 1398.76 455 1400.5C444.068 1409.63 437.5 1432.5 437.5 1432.5H786V1441.5H434.839L425.084 1474.5H622.5L595 1487.75H421.167L417.25 1501H567.5V1512V1609H305.604L309 1618.5H394H567.5H743.394L730.5 1652.09C718.465 1656.06 704.856 1660.71 690.063 1666C628.217 1688.13 545.681 1721.65 471 1765C340 1836 267.5 1936 267.5 1936C295 2153 346 2232.5 443 2341C551.255 2462.09 786 2469.5 786 2469.5Z" fill="black" fill-opacity="0.15"/>
<path d="M769.15 1332.5L767.75 1346.5H766V1332.5H769.15Z" fill="black" fill-opacity="0.15"/>
<path d="M378.5 1659L394 1618.5M267 1501H417.25M567.5 1501H417.25M567.5 1501V1512M567.5 1501L595 1487.75M622.5 1474.5H786M622.5 1474.5V1485M622.5 1474.5H425.084L434.839 1441.5H786V1432.5H437.5C437.5 1432.5 444.068 1409.63 455 1400.5C457.078 1398.76 459.613 1397.27 462.36 1396M622.5 1474.5L595 1487.75M786 1618.5H743.394M567.5 1618.5L622.5 1590M567.5 1618.5V1609M567.5 1618.5H394M567.5 1618.5H743.394M622.5 1590V1580M622.5 1590H754.333H786V1580H622.5M394 1618.5H309L305.604 1609H567.5M417.25 1501L421.167 1487.75H595M471 1765C340 1836 267.5 1936 267.5 1936C295 2153 346 2232.5 443 2341C551.255 2462.09 786 2469.5 786 2469.5V1635C786 1635 764.551 1640.86 730.5 1652.09M471 1765C545.681 1721.65 628.217 1688.13 690.063 1666M471 1765H336.023M730.5 1652.09C718.465 1656.06 704.856 1660.71 690.063 1666M730.5 1652.09L743.394 1618.5M622.5 1580L567.5 1609M622.5 1580V1485M567.5 1609V1512M567.5 1512L622.5 1485M567.5 1512H270.932M622.5 1485H786M462.36 1396C474.21 1390.5 490 1389 490 1389H786V1396H462.36ZM375.695 1666H690.063M767.75 1346.5L769.15 1332.5C769.15 1332.5 767.23 1332.5 766 1332.5C766 1337.97 766 1346.5 766 1346.5H767.75Z" stroke="#83BD4C" stroke-width="3"/>
</g>
</g>
</mask>
<g mask="url(#mask1_120_3701)">
<rect id="Rectangle 13_2" x="173" y="1159" width="613" height="1516" fill="black" fill-opacity="0.15"/>
</g>
</g>
<path id="STROKE_4" d="M378.5 1659L394 1618.5M309 1618.5H394M267 1501H417.25M567.5 1501H417.25M567.5 1501V1512M567.5 1501L595 1487.75M622.5 1474.5H786M622.5 1474.5V1485M622.5 1474.5H425.084L434.839 1441.5H786V1432.5H437.5C437.5 1432.5 444.068 1409.63 455 1400.5C457.078 1398.76 459.613 1397.27 462.36 1396M622.5 1474.5L595 1487.75M786 1618.5H743.394M567.5 1618.5L622.5 1590M567.5 1618.5V1609M567.5 1618.5H394M567.5 1618.5H743.394M622.5 1590V1580M622.5 1590H775.5H786M417.25 1501L421.167 1487.75H595M471 1765C340 1836 267.5 1936 267.5 1936C295 2153 346 2232.5 443 2341C551.255 2462.09 786 2469.5 786 2469.5V1635C786 1635 764.551 1640.86 730.5 1652.09M471 1765C545.681 1721.65 628.217 1688.13 690.063 1666M471 1765H336.023M786 1580H622.5M730.5 1652.09C718.465 1656.06 704.856 1660.71 690.063 1666M730.5 1652.09L743.394 1618.5M622.5 1580L567.5 1609M622.5 1580V1485M567.5 1609V1512M567.5 1609H305.604M567.5 1512L622.5 1485M567.5 1512H270.932M622.5 1485H786M462.36 1396C474.21 1390.5 490 1389 490 1389H786V1396H462.36ZM375.695 1666H690.063M767.75 1346.5L769.15 1332.5C769.15 1332.5 767.23 1332.5 766 1332.5C766 1337.97 766 1346.5 766 1346.5H767.75Z" stroke="#83BD4C" stroke-width="2" stroke-linecap="round" stroke-linejoin="round"/>
</g>
<circle id="LOGO" cx="786" cy="1761" r="55" fill="#D9D9D9"/>
</g>
<g id="SEA">
<g id="Frame 6" clip-path="url(#clip1_120_3701)">
<path id="Union" fill-rule="evenodd" clip-rule="evenodd" d="M-787.342 2358.52H-331.342V2202.02C-335.548 2198.31 -339.049 2194.45 -342.337 2190.82C-352.338 2179.79 -360.376 2170.92 -380.342 2175.02C-393.608 2177.74 -414.6 2189.13 -435.592 2200.52C-456.584 2211.91 -477.577 2223.3 -490.842 2226.02C-507.7 2229.48 -518.521 2227.75 -529.342 2226.02C-540.163 2224.29 -550.984 2222.56 -567.842 2226.02C-584.021 2229.34 -594.806 2238.68 -605.592 2248.02C-616.378 2257.36 -627.163 2266.7 -643.342 2270.02C-652.11 2271.82 -665.101 2270.92 -678.092 2270.02C-691.083 2269.12 -704.074 2268.22 -712.842 2270.02C-720.931 2271.68 -735.512 2283.22 -750.092 2294.77C-764.672 2306.31 -779.253 2317.86 -787.342 2319.52V2358.52ZM301 2358.52H797L797 2319.52C788.911 2317.86 774.33 2306.31 759.75 2294.77L759.75 2294.77C745.17 2283.22 730.589 2271.68 722.5 2270.02C713.732 2268.22 700.741 2269.12 687.75 2270.02C674.759 2270.92 661.768 2271.82 653 2270.02C636.821 2266.7 626.036 2257.36 615.25 2248.02C604.464 2238.68 593.679 2229.34 577.5 2226.02C560.642 2222.56 549.821 2224.29 539 2226.02C528.179 2227.75 517.358 2229.48 500.5 2226.02C487.235 2223.3 466.242 2211.91 445.25 2200.52C424.258 2189.13 403.265 2177.74 390 2175.02C364.059 2169.7 317.145 2187.21 299.18 2202.01C285.506 2201.93 272.236 2200.99 259.103 2200.05C232.105 2198.12 205.682 2196.24 177.5 2202.02C153.758 2206.89 141.105 2212.11 129.935 2216.72C121.109 2220.36 113.21 2223.62 101.5 2226.02C84.6423 2229.48 73.8212 2227.75 62.9999 2226.02C52.1787 2224.29 41.3575 2222.56 24.4999 2226.02C8.32117 2229.34 -2.46448 2238.68 -13.2501 2248.02C-24.0358 2257.36 -34.8214 2266.7 -51.0001 2270.02C-59.7682 2271.82 -72.7592 2270.92 -85.7501 2270.02C-98.741 2269.12 -111.732 2268.22 -120.5 2270.02C-128.589 2271.68 -143.17 2283.22 -157.75 2294.77L-157.75 2294.77C-172.331 2306.31 -186.911 2317.86 -195 2319.52L-195 2358.52H298H301Z" fill="#00A8B2"/>
<path id="Union_2" fill-rule="evenodd" clip-rule="evenodd" d="M787 2359.02H-6.10352e-05V2238.74C34.3999 2248.52 236.333 2220 333 2204.52L787 2318.44V2359.02ZM-787.342 2359.02H-0.34198V2238.74C-34.7419 2248.52 -236.675 2220 -333.342 2204.52L-787.342 2318.44V2359.02Z" fill="#1887A0"/>
<path id="Union_3" fill-rule="evenodd" clip-rule="evenodd" d="M847 2368.02H59.9999H-727V2326.52C-711.867 2325.24 -684.309 2322.76 -656.75 2320.27C-629.191 2317.78 -601.633 2315.3 -586.5 2314.02C-558.578 2311.66 -539.914 2302.47 -521.25 2293.27C-502.586 2284.07 -483.922 2274.88 -456 2272.52C-426.906 2270.06 -411.078 2274.12 -395.25 2278.18C-379.422 2282.24 -363.594 2286.29 -334.5 2283.84C-311.606 2281.9 -291.356 2271.57 -271.106 2261.24C-250.856 2250.91 -230.605 2240.59 -207.711 2238.65C-204.666 2238.39 -195.123 2239.3 -182.382 2240.5C-160.301 2242.58 -128.613 2245.58 -104.5 2245.02L-82.4023 2240.11C-82.1039 2239.98 -81.8068 2239.85 -81.5103 2239.73C-75.7008 2237.23 -70.1221 2234.83 -59.5 2235.02C-34.9352 2235.46 -18.0261 2239.01 -2.89642 2242.19C16.7727 2246.32 33.4344 2249.82 59.9999 2245.02C86.5656 2249.82 103.227 2246.32 122.896 2242.19C138.026 2239.01 154.935 2235.46 179.5 2235.02C190.122 2234.83 195.701 2237.23 201.51 2239.73C201.807 2239.85 202.104 2239.98 202.402 2240.11L224.5 2245.02C248.613 2245.58 280.301 2242.58 302.382 2240.5C315.123 2239.3 324.666 2238.39 327.711 2238.65C350.605 2240.59 370.855 2250.91 391.105 2261.24C411.356 2271.57 431.606 2281.9 454.5 2283.84C483.594 2286.29 499.422 2282.24 515.25 2278.18C531.078 2274.12 546.906 2270.06 576 2272.52C603.922 2274.88 622.586 2284.07 641.25 2293.27C659.914 2302.47 678.578 2311.66 706.5 2314.02C721.633 2315.3 749.191 2317.78 776.75 2320.27C804.309 2322.76 831.867 2325.24 847 2326.52V2368.02Z" fill="white"/>
<path id="Union_4" fill-rule="evenodd" clip-rule="evenodd" d="M787 2359.02H0L-787 2359.02V2313.52C-787 2313.52 -755.174 2305.93 -733.5 2304.1C-722.565 2303.17 -713.158 2304.39 -703.75 2305.6C-694.342 2306.81 -684.935 2308.02 -674 2307.1C-660.039 2305.92 -649.519 2302.75 -639 2299.58C-628.481 2296.41 -617.961 2293.24 -604 2292.06C-588.867 2290.78 -577.059 2292.53 -565.25 2294.28C-553.441 2296.03 -541.633 2297.79 -526.5 2296.51C-498.578 2294.15 -476.789 2286.31 -455 2278.47C-433.211 2270.62 -411.422 2262.78 -383.5 2260.42C-354.406 2257.97 -331.703 2262.8 -309 2267.63C-286.297 2272.46 -263.594 2277.29 -234.5 2274.83C-211.605 2272.9 -193.74 2264.39 -175.875 2255.88C-158.01 2247.37 -140.145 2238.86 -117.25 2236.93C-106.612 2236.03 -95.4078 2239.5 -83.205 2243.29C-70.2648 2247.3 -56.2018 2251.66 -40.5 2251.52C-24.5869 2251.39 0 2247.02 0 2247.02C0 2247.02 17.5869 2251.88 33.5 2252.02C49.1923 2252.15 64.6369 2247.43 78.9197 2243.06C92.4053 2238.93 104.855 2235.12 115.5 2236.02C138.395 2237.95 156.697 2246.69 175 2255.43C193.303 2264.16 211.605 2272.9 234.5 2274.83C263.594 2277.29 286.297 2272.46 309 2267.63C331.703 2262.8 354.406 2257.97 383.5 2260.42C411.422 2262.78 433.211 2270.62 455 2278.47C476.789 2286.31 498.578 2294.15 526.5 2296.51C541.633 2297.79 553.441 2296.03 565.25 2294.28C577.059 2292.53 588.867 2290.78 604 2292.06C617.961 2293.24 628.481 2296.41 639 2299.58C649.519 2302.75 660.039 2305.92 674 2307.1C684.935 2308.02 694.342 2306.81 703.75 2305.6C713.158 2304.39 722.565 2303.17 733.5 2304.1C755.174 2305.93 787 2313.52 787 2313.52V2359.02Z" fill="#00A8B3"/>
</g>
</g>
<g id="SEA_2">
<g id="Frame 6_2" clip-path="url(#clip2_120_3701)">
<path id="Union_5" fill-rule="evenodd" clip-rule="evenodd" d="M2350.34 2359H1894.34V2202.5C1898.55 2198.79 1902.05 2194.93 1905.34 2191.3C1915.34 2180.27 1923.38 2171.4 1943.34 2175.5C1956.61 2178.22 1977.6 2189.61 1998.59 2201C2019.58 2212.39 2040.58 2223.78 2053.84 2226.5C2070.7 2229.96 2081.52 2228.23 2092.34 2226.5C2103.16 2224.77 2113.98 2223.04 2130.84 2226.5C2147.02 2229.82 2157.81 2239.16 2168.59 2248.5C2179.38 2257.84 2190.16 2267.18 2206.34 2270.5C2215.11 2272.3 2228.1 2271.4 2241.09 2270.5C2254.08 2269.6 2267.07 2268.7 2275.84 2270.5C2283.93 2272.16 2298.51 2283.7 2313.09 2295.25C2327.67 2306.8 2342.25 2318.34 2350.34 2320V2359ZM1262 2359H766L766 2320C774.089 2318.34 788.67 2306.8 803.25 2295.25L803.25 2295.25C817.83 2283.7 832.411 2272.16 840.5 2270.5C849.268 2268.7 862.259 2269.6 875.25 2270.5C888.241 2271.4 901.232 2272.3 910 2270.5C926.179 2267.18 936.964 2257.84 947.75 2248.5C958.536 2239.16 969.321 2229.82 985.5 2226.5C1002.36 2223.04 1013.18 2224.77 1024 2226.5C1034.82 2228.23 1045.64 2229.96 1062.5 2226.5C1075.77 2223.78 1096.76 2212.39 1117.75 2201C1138.74 2189.61 1159.73 2178.22 1173 2175.5C1198.94 2170.18 1245.86 2187.69 1263.82 2202.49C1277.49 2202.42 1290.76 2201.47 1303.9 2200.53C1330.89 2198.6 1357.32 2196.72 1385.5 2202.5C1409.24 2207.37 1421.9 2212.59 1433.07 2217.2C1441.89 2220.84 1449.79 2224.1 1461.5 2226.5C1478.36 2229.96 1489.18 2228.23 1500 2226.5C1510.82 2224.77 1521.64 2223.04 1538.5 2226.5C1554.68 2229.82 1565.46 2239.16 1576.25 2248.5C1587.04 2257.84 1597.82 2267.18 1614 2270.5C1622.77 2272.3 1635.76 2271.4 1648.75 2270.5C1661.74 2269.6 1674.73 2268.7 1683.5 2270.5C1691.59 2272.16 1706.17 2283.7 1720.75 2295.25L1720.75 2295.25C1735.33 2306.8 1749.91 2318.34 1758 2320L1758 2359H1265H1262Z" fill="#00A8B2"/>
<path id="Union_6" fill-rule="evenodd" clip-rule="evenodd" d="M776 2359.5H1563V2239.22C1528.6 2249 1326.67 2220.48 1230 2205L776 2318.92V2359.5ZM2350.34 2359.5H1563.34V2239.22C1597.74 2249 1799.68 2220.48 1896.34 2205L2350.34 2318.92V2359.5Z" fill="#1887A0"/>
<path id="Union_7" fill-rule="evenodd" clip-rule="evenodd" d="M716 2368.5H1503H2290V2327C2274.87 2325.72 2247.31 2323.24 2219.75 2320.75C2192.19 2318.27 2164.63 2315.78 2149.5 2314.5C2121.58 2312.14 2102.91 2302.95 2084.25 2293.75C2065.59 2284.56 2046.92 2275.36 2019 2273C1989.91 2270.54 1974.08 2274.6 1958.25 2278.66C1942.42 2282.72 1926.59 2286.77 1897.5 2284.32C1874.61 2282.38 1854.36 2272.05 1834.11 2261.72C1813.86 2251.4 1793.61 2241.07 1770.71 2239.13C1767.67 2238.88 1758.12 2239.78 1745.38 2240.98C1723.3 2243.07 1691.61 2246.06 1667.5 2245.5L1645.4 2240.59C1645.1 2240.46 1644.81 2240.34 1644.51 2240.21C1638.7 2237.71 1633.12 2235.31 1622.5 2235.5C1597.94 2235.94 1581.03 2239.49 1565.9 2242.67C1546.23 2246.8 1529.57 2250.3 1503 2245.5C1476.43 2250.3 1459.77 2246.8 1440.1 2242.67C1424.97 2239.49 1408.06 2235.94 1383.5 2235.5C1372.88 2235.31 1367.3 2237.71 1361.49 2240.21C1361.19 2240.34 1360.9 2240.46 1360.6 2240.59L1338.5 2245.5C1314.39 2246.06 1282.7 2243.07 1260.62 2240.98C1247.88 2239.78 1238.33 2238.88 1235.29 2239.13C1212.39 2241.07 1192.14 2251.4 1171.89 2261.72C1151.64 2272.05 1131.39 2282.38 1108.5 2284.32C1079.41 2286.77 1063.58 2282.72 1047.75 2278.66C1031.92 2274.6 1016.09 2270.54 987 2273C959.078 2275.36 940.414 2284.56 921.75 2293.75C903.086 2302.95 884.422 2312.14 856.5 2314.5C841.367 2315.78 813.809 2318.27 786.25 2320.75C758.691 2323.24 731.133 2325.72 716 2327V2368.5Z" fill="white"/>
<path id="Union_8" fill-rule="evenodd" clip-rule="evenodd" d="M776 2359.5H1563L2350 2359.5V2314C2350 2314 2318.17 2306.41 2296.5 2304.58C2285.57 2303.65 2276.16 2304.87 2266.75 2306.08C2257.34 2307.29 2247.93 2308.5 2237 2307.58C2223.04 2306.4 2212.52 2303.23 2202 2300.06C2191.48 2296.89 2180.96 2293.72 2167 2292.54C2151.87 2291.26 2140.06 2293.01 2128.25 2294.76C2116.44 2296.51 2104.63 2298.27 2089.5 2296.99C2061.58 2294.63 2039.79 2286.79 2018 2278.95C1996.21 2271.11 1974.42 2263.26 1946.5 2260.9C1917.41 2258.45 1894.7 2263.28 1872 2268.11C1849.3 2272.94 1826.59 2277.77 1797.5 2275.31C1774.61 2273.38 1756.74 2264.87 1738.88 2256.36C1721.01 2247.85 1703.14 2239.34 1680.25 2237.41C1669.61 2236.51 1658.41 2239.98 1646.2 2243.77C1633.26 2247.78 1619.2 2252.14 1603.5 2252C1587.59 2251.87 1563 2247.5 1563 2247.5C1563 2247.5 1545.41 2252.36 1529.5 2252.5C1513.81 2252.64 1498.36 2247.91 1484.08 2243.54C1470.59 2239.41 1458.14 2235.6 1447.5 2236.5C1424.61 2238.43 1406.3 2247.17 1388 2255.91C1369.7 2264.64 1351.39 2273.38 1328.5 2275.31C1299.41 2277.77 1276.7 2272.94 1254 2268.11C1231.3 2263.28 1208.59 2258.45 1179.5 2260.9C1151.58 2263.26 1129.79 2271.11 1108 2278.95C1086.21 2286.79 1064.42 2294.63 1036.5 2296.99C1021.37 2298.27 1009.56 2296.51 997.75 2294.76C985.941 2293.01 974.133 2291.26 959 2292.54C945.039 2293.72 934.519 2296.89 924 2300.06C913.481 2303.23 902.961 2306.4 889 2307.58C878.065 2308.5 868.658 2307.29 859.25 2306.08C849.842 2304.87 840.435 2303.65 829.5 2304.58C807.826 2306.41 776 2314 776 2314V2359.5Z" fill="#00A8B3"/>
</g>
</g>
</g>
</g>
<defs>
<linearGradient id="paint0_linear_120_3701" x1="786" y1="1600.5" x2="1289.73" y2="1588.32" gradientUnits="userSpaceOnUse">
<stop offset="0.383689" stop-color="#0881D1"/>
<stop offset="0.932292" stop-color="#5DB7DE" stop-opacity="0.58"/>
</linearGradient>
<linearGradient id="paint1_linear_120_3701" x1="786" y1="1600.5" x2="1289.73" y2="1588.32" gradientUnits="userSpaceOnUse">
<stop offset="0.383689" stop-color="#0881D1"/>
<stop offset="0.932292" stop-color="#5DB7DE" stop-opacity="0.58"/>
</linearGradient>
<linearGradient id="paint2_linear_120_3701" x1="786" y1="1600.5" x2="1289.73" y2="1588.32" gradientUnits="userSpaceOnUse">
<stop offset="0.383689" stop-color="#0881D1"/>
<stop offset="0.932292" stop-color="#5DB7DE" stop-opacity="0.58"/>
</linearGradient>
<linearGradient id="paint3_linear_120_3701" x1="786" y1="1600.5" x2="1289.73" y2="1588.32" gradientUnits="userSpaceOnUse">
<stop offset="0.383689" stop-color="#0881D1"/>
<stop offset="0.932292" stop-color="#5DB7DE" stop-opacity="0.58"/>
</linearGradient>
<linearGradient id="paint4_linear_120_3701" x1="786" y1="1600.5" x2="1289.73" y2="1588.32" gradientUnits="userSpaceOnUse">
<stop offset="0.383689" stop-color="#0881D1"/>
<stop offset="0.932292" stop-color="#5DB7DE" stop-opacity="0.58"/>
</linearGradient>
<linearGradient id="paint5_linear_120_3701" x1="786" y1="1600.5" x2="1289.73" y2="1588.32" gradientUnits="userSpaceOnUse">
<stop offset="0.383689" stop-color="#0881D1"/>
<stop offset="0.932292" stop-color="#5DB7DE" stop-opacity="0.58"/>
</linearGradient>
<linearGradient id="paint6_linear_120_3701" x1="786" y1="1600.5" x2="1289.73" y2="1588.32" gradientUnits="userSpaceOnUse">
<stop offset="0.383689" stop-color="#0881D1"/>
<stop offset="0.932292" stop-color="#5DB7DE" stop-opacity="0.58"/>
</linearGradient>
<linearGradient id="paint7_linear_120_3701" x1="786" y1="1600.5" x2="1289.73" y2="1588.32" gradientUnits="userSpaceOnUse">
<stop offset="0.383689" stop-color="#0881D1"/>
<stop offset="0.932292" stop-color="#5DB7DE" stop-opacity="0.58"/>
</linearGradient>
<linearGradient id="paint8_linear_120_3701" x1="786" y1="1600.5" x2="1289.73" y2="1588.32" gradientUnits="userSpaceOnUse">
<stop offset="0.383689" stop-color="#0881D1"/>
<stop offset="0.932292" stop-color="#5DB7DE" stop-opacity="0.58"/>
</linearGradient>
<linearGradient id="paint9_linear_120_3701" x1="786" y1="1600.5" x2="1289.73" y2="1588.32" gradientUnits="userSpaceOnUse">
<stop offset="0.383689" stop-color="#0881D1"/>
<stop offset="0.932292" stop-color="#5DB7DE" stop-opacity="0.58"/>
</linearGradient>
<linearGradient id="paint10_linear_120_3701" x1="786" y1="1600.5" x2="1289.73" y2="1588.32" gradientUnits="userSpaceOnUse">
<stop offset="0.383689" stop-color="#0881D1"/>
<stop offset="0.932292" stop-color="#5DB7DE" stop-opacity="0.58"/>
</linearGradient>
<linearGradient id="paint11_linear_120_3701" x1="786" y1="1431" x2="1134" y2="1397" gradientUnits="userSpaceOnUse">
<stop offset="0.383689" stop-color="#0881D1"/>
<stop offset="0.932292" stop-color="#5DB7DE" stop-opacity="0.58"/>
</linearGradient>
<radialGradient id="paint12_radial_120_3701" cx="0" cy="0" r="1" gradientUnits="userSpaceOnUse" gradientTransform="translate(1318.5 2052) rotate(-140.557) scale(354.157 220.048)">
<stop offset="0.0209707" stop-color="#5DB7DE"/>
<stop offset="1" stop-color="#0881D1"/>
</radialGradient>
<linearGradient id="paint13_linear_120_3701" x1="786" y1="1600.5" x2="282.266" y2="1588.32" gradientUnits="userSpaceOnUse">
<stop offset="0.383689" stop-color="#0881D1"/>
<stop offset="0.932292" stop-color="#5DB7DE" stop-opacity="0.58"/>
</linearGradient>
<linearGradient id="paint14_linear_120_3701" x1="786" y1="1600.5" x2="282.266" y2="1588.32" gradientUnits="userSpaceOnUse">
<stop offset="0.383689" stop-color="#0881D1"/>
<stop offset="0.932292" stop-color="#5DB7DE" stop-opacity="0.58"/>
</linearGradient>
<linearGradient id="paint15_linear_120_3701" x1="786" y1="1600.5" x2="282.266" y2="1588.32" gradientUnits="userSpaceOnUse">
<stop offset="0.383689" stop-color="#0881D1"/>
<stop offset="0.932292" stop-color="#5DB7DE" stop-opacity="0.58"/>
</linearGradient>
<linearGradient id="paint16_linear_120_3701" x1="786" y1="1600.5" x2="282.266" y2="1588.32" gradientUnits="userSpaceOnUse">
<stop offset="0.383689" stop-color="#0881D1"/>
<stop offset="0.932292" stop-color="#5DB7DE" stop-opacity="0.58"/>
</linearGradient>
<linearGradient id="paint17_linear_120_3701" x1="786" y1="1600.5" x2="282.266" y2="1588.32" gradientUnits="userSpaceOnUse">
<stop offset="0.383689" stop-color="#0881D1"/>
<stop offset="0.932292" stop-color="#5DB7DE" stop-opacity="0.58"/>
</linearGradient>
<linearGradient id="paint18_linear_120_3701" x1="786" y1="1600.5" x2="282.266" y2="1588.32" gradientUnits="userSpaceOnUse">
<stop offset="0.383689" stop-color="#0881D1"/>
<stop offset="0.932292" stop-color="#5DB7DE" stop-opacity="0.58"/>
</linearGradient>
<linearGradient id="paint19_linear_120_3701" x1="786" y1="1600.5" x2="282.266" y2="1588.32" gradientUnits="userSpaceOnUse">
<stop offset="0.383689" stop-color="#0881D1"/>
<stop offset="0.932292" stop-color="#5DB7DE" stop-opacity="0.58"/>
</linearGradient>
<linearGradient id="paint20_linear_120_3701" x1="786" y1="1600.5" x2="282.266" y2="1588.32" gradientUnits="userSpaceOnUse">
<stop offset="0.383689" stop-color="#0881D1"/>
<stop offset="0.932292" stop-color="#5DB7DE" stop-opacity="0.58"/>
</linearGradient>
<linearGradient id="paint21_linear_120_3701" x1="786" y1="1600.5" x2="282.266" y2="1588.32" gradientUnits="userSpaceOnUse">
<stop offset="0.383689" stop-color="#0881D1"/>
<stop offset="0.932292" stop-color="#5DB7DE" stop-opacity="0.58"/>
</linearGradient>
<linearGradient id="paint22_linear_120_3701" x1="786" y1="1600.5" x2="282.266" y2="1588.32" gradientUnits="userSpaceOnUse">
<stop offset="0.383689" stop-color="#0881D1"/>
<stop offset="0.932292" stop-color="#5DB7DE" stop-opacity="0.58"/>
</linearGradient>
<linearGradient id="paint23_linear_120_3701" x1="786" y1="1600.5" x2="282.266" y2="1588.32" gradientUnits="userSpaceOnUse">
<stop offset="0.383689" stop-color="#0881D1"/>
<stop offset="0.932292" stop-color="#5DB7DE" stop-opacity="0.58"/>
</linearGradient>
<linearGradient id="paint24_linear_120_3701" x1="786" y1="1431" x2="438" y2="1397" gradientUnits="userSpaceOnUse">
<stop offset="0.383689" stop-color="#0881D1"/>
<stop offset="0.932292" stop-color="#5DB7DE" stop-opacity="0.58"/>
</linearGradient>
<radialGradient id="paint25_radial_120_3701" cx="0" cy="0" r="1" gradientUnits="userSpaceOnUse" gradientTransform="translate(253.5 2052) rotate(-39.4431) scale(354.157 220.048)">
<stop offset="0.0209707" stop-color="#5DB7DE"/>
<stop offset="1" stop-color="#0881D1"/>
</radialGradient>
<clipPath id="clip0_120_3701">
<rect width="1563" height="2360" fill="white"/>
</clipPath>
<clipPath id="clip1_120_3701">
<rect width="786" height="276" fill="white" transform="matrix(-1 0 0 1 786 2083.52)"/>
</clipPath>
<clipPath id="clip2_120_3701">
<rect width="786" height="276" fill="white" transform="translate(777 2084)"/>
</clipPath>
</defs>
</svg>
